<svg width="961" height="602" enable-background="new 161.5 13.5 273 561" version="1.0" viewBox="161.5 13.5 262.353 159.98655" xmlns="http://www.w3.org/2000/svg">
 <g>
  <path d="m177.24956 64.96952c0.18893 0.09145 0.37902 0.183835 0.60732 0.285263 0.625 0.277502 0.44565-0.461498 0.74275-0.1381 0.5279 0.574701 0.67507 0.218821 0.97576 0.332719 0.29501 0.111701 0.40364 0.361815 0.55294 0.488416 0.4515 0.382899 0.75309 0.88226 1.10959 0.839259 0.2273-0.0273 0.4612-0.251654 0.8462-0.315656 0.2525-0.0419 0.48354-0.270693 1.05894-0.160494 0.7848 0.150401 0.82627 1.005415 0.93737 1.034416 0.1621 0.0423 0.19362 0.149784 0.16263 0.336983-0.1094 0.656901 0.21677 1.631159 0.10557 1.805958-0.1391 0.218403-0.25174 0.387327 0.29166 0.848328 0.2046 0.173598 0.41364-0.400138 0.68303 0.428163 0.0389 0.119699 0.0953 0.191419 0.36205 0.191419 0.2255-0.0032 0.35027 0.330319 0.24847 0.46122-0.1921 0.247101-0.42229 0.30603-0.45429 0.694231-0.025 0.306101-0.4726 0.411318-0.7918 0.745418-0.2416 0.252599-0.78225-0.02449-1.03335 0.226612-0.372 0.371799-0.19424 1.091836 0.0299 1.482838 0.2464 0.429598 0.20156 0.636974-0.22874 1.462575-0.33911 0.650401-1.12927 0.731056-1.65667 1.141056-0.4733 0.367998-1.10537 0.620881-1.34527 1.170381-0.1663 0.380698-0.41765 0.685388-1.00296 0.317788-0.2906-0.1822-0.6173-0.03397-0.9283-0.135968-0.4283-0.1406-0.52727 0.470846-0.55027 0.771545-0.0282 0.374701-0.62136 0.381515-0.68036 0.215416-0.0372-0.105102-0.11785-0.223336-0.23515-0.262337-0.6199-0.2038-0.22269-0.380406-0.44629-0.525205-0.2861-0.1854-0.89096-0.322405-0.97096-0.247406-0.1628 0.153699-0.0829 0.406035-0.0139 0.948036 0.0453 0.3544-0.13398 0.57309-0.056 0.854189 0.224 0.813101-0.42976 1.100936-0.42976 1.355937-5e-3 0.5176 0.8133 1.1042 0.9507 1.7697 0.1768 0.8565 0.44486 1.555732 0.70916 2.470331 0.1393 0.482099-0.29797 0.280734-0.39297 0.681433-0.0283 0.119901-0.21727 0.385104-0.42657 0.395104-0.3529 0.0093-0.55359 0.208815-0.99229 0.348714-0.5439 0.173301-0.47387 0.403377-0.24367 0.510275 0.13 0.0602 0.11485 0.285687 0.0699 0.473486-0.152 0.641201-0.026 0.832765-0.056 1.096264-0.0262 0.228602-0.50425 0.116757-0.60785 0.322056-0.2537 0.502601 0.0542 1.112887 0.32046 1.554287 0.1427 0.2362 0.52522 0.0058 0.71342 0.05279 0.2571 0.0637 0.14232 0.41368 0.31832 0.900581 0.0583 0.161499-0.25266 0.336822-0.41376 0.454821-0.1301 0.0952-0.10741 0.787403 0.18289 0.950703 0.3202 0.180199 1.28931-0.227919 1.84701-0.329522 0.257-0.0468 0.40902-0.03185 0.49801 0.325255 0.0599 0.240999 0.43219 0.496655 0.33219 0.729956-0.1319 0.3082-0.86175 0.207089-1.17145 0.449489-0.2792 0.218501-0.36172 0.623753-0.60731 0.879254-0.25721 0.267698-0.69562 0.282888-0.76462 0.455888-0.1481 0.370799-7e-3 0.723067 0.15463 1.088268 0.1058 0.239797 0.35614 0.02656 0.79394 0.325252 0.316 0.2157 0.73564 0.352031 0.94643 0.557731 0.1807 0.1763 0.30846 0.332183 0.32046 0.616382 0.0114 0.262801-0.94281 0.160082-1.46951 0.210082-0.4638 0.0441-0.61996 0.267739-1.67586 0.659041-0.227 0.0842-0.14549 0.913529 0.53481 0.679829 0.3776-0.1297 1.08032-0.26986 1.15332 0.12264 0.1229 0.6658 0.5035 0.86103 0.8094 1.11013 0.2185 0.1779 0.20758 0.35924-0.0741 0.34924-0.5202-0.0129-0.99759 0.23637-1.38899 0.15837-0.2779-0.0551-0.48179-0.47658-0.75289-0.39457-0.28169 0.0857-0.0145 0.66815-0.45108 0.74115-0.4406 0.0735-0.76701-0.57519-1.18692-0.72729-0.3422-0.1244-0.71572 0.0857-0.96403 0.0347-0.1872-0.0384-0.30943-0.23564-0.41643-0.39404-0.1296-0.192-0.37161-0.12084-0.75981-0.38764-0.3002-0.2064-0.35718 0.056-0.22928 0.35298 0.0875 0.2032 6e-3 0.48408-0.19568 0.37058-0.2902-0.1634-0.84692-0.2756-1.55962-0.1445-0.1303 0.024-0.13323-0.24941-0.17223-0.37591-0.0446-0.1435-0.19921-0.41945-0.36471-0.32845-0.1995 0.1099-0.13773 0.72874-0.30073 1.18104-0.15779 0.4377-0.12502 0.96307-0.31352 1.38847-0.1542 0.3479-0.43577 0.64897-0.67877 0.92297-0.2504 0.2824-0.61329 0.45085-0.95869 0.60305-0.4971 0.219-1.12402 0.12406-1.57082 0.43296-0.4763 0.3294-0.58617 0.87898-0.79448 1.30208-0.1154 0.2343-0.42711 0.18265-0.61531 0.36365-0.2107 0.2025-0.33804 0.49479-0.53054 0.71449-0.3112 0.3549-1.14848 0.63613-1.05148 0.85313 0.2022 0.4513 0.0875 0.87253 0.4495 0.83553 0.55669-0.06 0.97623 0.067 1.63533 0 0.4285-0.0433 0.77897-0.14645 1.07387-0.10345 0.2413 0.0352 0.46467-0.20918 0.79127-0.35298 0.3707-0.1633 0.62436-0.43175 1.00936-0.47775 0.6383-0.0756 1.00703 0.18117 1.50363 0.29007 0.2233 0.049 0.4474 0.26682 0.6697 0.45962 0.2813 0.244 0.54905 0.48005 0.63505 0.74275 0.1374 0.4182 0.91792 0.30631 0.86592 0.64251-0.2287 1.4893-0.0594 1.8036-0.11037 2.0555-0.0981 0.4798-0.81653 0.72469-0.83553 1.12079-0.0341 0.7261 0.82129 0.4431 0.60198 0.6873-0.3727 0.4155-0.33264 0.83771-0.34764 1.33141-9e-3 0.2959 0.33977 0.41395 0.52627 0.73315 0.213 0.3645 0.0249 0.67709 0.5188 1.29089 0.1503 0.1867 0.55227-0.29674 0.68677-0.10344 0.4149 0.59589-0.33216 0.52228-0.18236 0.75288 0.5232 0.8051 2.08901 0.45602 2.15201 0.72302 0.2439 1.0377-0.23269 1.14574-0.15569 1.33194 0.1381 0.3354 0.0197 0.4095-0.41057 0.5732-0.4693 0.1785-0.63216-0.44852-0.84086-0.19302-0.2438 0.2983-0.24615 0.89934-0.21115 1.31914 6e-3 0.0719 0.0463 0.1128 0.10291 0.1413h198.18088c0.23731-0.40125 0.49604-0.84135 0.76302-1.20771 0.167-0.22909-0.32767-0.50215-0.52147-0.70915-0.158-0.17261-0.43003-0.88174-0.15783-1.09894 0.4431-0.3537 0.67661 0.49515 0.91711 0.34445 0.7422-0.4654 0.67259-0.0539 1.13679-0.0299 0.3556 0.0187 1.00065-0.45117 1.26635-0.80727 0.11261-0.151 0.28527-0.36694 0.26128-0.63504-0.0226-0.2531 0.32167-0.31693 0.25167-0.71823-0.0692-0.397-0.17416-1.08525-0.57267-1.14425-0.48399-0.0718-0.49597-0.21103-0.77847-0.44203-0.3673-0.3009-0.22198-0.91189-0.34818-1.40179-0.0546-0.2144 0.44057-0.13421 0.66277-0.20421 0.1686-0.0529 0.16824-0.34128 0.12423-0.63718-0.02-0.1313-0.11864-0.25398-0.0746-0.35298 0.0973-0.2156 0.37714-0.29292 0.20954-0.60732-0.088-0.1653-0.11256-1.26284 0.0117-1.60494 0.1363-0.3756 0.54196-0.0548 0.87926-0.281 0.2672-0.1792 0.56789-0.1368 0.86059-0.3983 0.3962-0.3538 0.77909-0.48514 1.24769-0.50814 0.6102-0.0303 0.66691-1.60621 0.36471-2.02031-0.4141-0.567-0.48028-0.96718-0.47028-1.30048 0.0162-0.6568 0.56145-0.78854 1.01575-0.81154 0.234-0.0117 0.23133-0.29762 0.55933-0.45962 0.3655-0.1804 0.22952-0.88859 0.86272-1.00829 0.2687-0.0507 0.84946-0.79358 0.18076-0.89258-0.1627-0.024-0.33577-0.23838-0.14397-0.47028 0.5613-0.6787 0.56128-1.10017 0.51028-1.51377-0.0807-0.6521-0.81394-0.56616-1.19544-1.10106-0.1628-0.232-0.185-0.741996 0-0.974695 0.237-0.2981 1.31846 0.260237 1.52496-0.556664 0.2096-0.828699 0.75395-0.791132 0.75395-1.371931 2e-3 -0.4271 0.48395-1.196816 0.88725-1.577214 0.3523-0.332702 1.28964-0.460496 1.73984-0.425498 0.7783 0.0605 0.12922-0.903834 0.47562-1.224233 0.3413-0.3157 0.49172-0.398462 0.56573-1.250362 0.0402-0.4644 0.25039-0.329754 0.29539-1.007755 0.0294-0.442298 1.09928-0.145869 1.33247-0.93737 0.1819-0.6158 0.27793-1.423673 0.0101-2.021373-0.0954-0.2219-0.2206-0.397013 0.01-0.628113 0.3682-0.3697-0.0284-1.15354 0.55133-1.749439 0.2268-0.233601 0.69608-0.553532 0.32578-0.960832-0.1643-0.180802-0.20618-0.321119-0.04-0.474018 0.35589-0.327802 0.0232-0.995661 0.30392-1.390061 0.3658-0.513999 1.0244-0.821987 1.0984-1.414588 0.0624-0.4995 9e-3 -1.0115 0.40257-1.3634 0.3047-0.2722 0.0128-0.655631 0.63291-0.824332 0.2753-0.0753 0.35897 0.138438 0.54707-0.158362 0.1782-0.2809 0.64783-0.04073 1.08933-0.01174 0.7245 0.0478 0.9333-0.295847 0.9683-0.901645 0.0179-0.3122 0.31294-0.835746 0.49374-1.176248 0.2142-0.403499-0.28079-0.481766-0.16209-0.818465 0.1314-0.372702-0.13944-0.530922-0.12744-0.729423 0.0411-0.706999-0.6152-1.185385-0.5332-1.836883 0.1147-0.9117 0.3819-1.892993 0.6665-2.900093 0.1259-0.4457 0.45256-0.772584 0.86486-0.884585 0.4668-0.1267 0.49637-0.420336 0.38657-0.663838-0.0885-0.195998 0.33917-0.711353 0.81847-0.456953 0.192 0.101998 0.32032 0.03476 0.31032-0.260737-6e-3 -0.244299 0.13687-0.560671 0.38977-0.799273 0.31481-0.296898 0.60986-0.659721 0.59986-0.86912-9e-3 -0.183401 0.0505-0.403636 0.23301-0.403636 0.2743-0.0052 0.33057 0.221889 0.78487 0.182891 0.2699-0.0231 0.50787 0.17404 0.66437 0.10504 0.2433-0.107901 0.43277-0.257887 0.40577-0.598788-0.0159-0.200101 0.0551-0.455194 0.17809-0.698495 0.2285-0.4506-0.0607-1.075814 0.31033-1.178912 0.0771-0.02143 0.0815-0.07589 0.16902-0.09704z" fill="#fff" stroke="#436f4d" stroke-width=".273"/>
  <path d="m366.85873 11.73452c-0.1309 0.0024-0.38825 0.242469-0.50814 0.264469-0.32101 0.0586-0.18214 0.182171-0.26714 0.389771-0.1556 0.3819 0.0829 0.867045-0.33005 1.042945-0.5007 0.2132-1.70555-0.580671-2.68735-0.251671-0.234 0.0785-0.7544 0.208299-0.3887 0.411099 0.2011 0.1114-0.0701 0.190103-0.0811 0.398303-0.0233 0.4252-0.18947 0.791972-0.39937 0.934172-0.1258 0.085-0.10662 0.28936-0.19462 0.43616-0.0848 0.1427-0.33951 0.320857-0.47721 0.310857-0.4865-0.023-0.72677 0.1009-1.09307 0-0.5784-0.1595-0.79755-1.08188-1.30155-0.89898-0.2145 0.0778-0.44476 0.15479-0.58066 0.31299-0.2229 0.2594-0.20936 0.511484-0.42496 0.611584-0.1856 0.0865-0.36833 0.07717-0.56893 0.107174-0.2395 0.0361-0.35938 0.185236-0.73529 0.124236-0.50909-0.0825-0.58224 0.742695-1.03014 0.976295-0.2817 0.1469-0.27712 0.322686-0.74862 0.465486-0.1536 0.047-0.38248 0.0436-0.62278 0.0176-0.4223-0.0451-0.28226-0.359308-0.45216-0.650507-0.2566-0.44-0.47306-0.508658-0.96936-0.994958-0.3387-0.332-0.92952 0.110698-1.28182 0.147698-0.4872 0.0516-0.56542-0.337592-0.88032-0.306592-0.2074 0.0205-0.32476 0.293981-0.57106 0.35298-0.3448 0.0831-0.51522 0.505766-0.71822 0.413766-0.3548-0.1602-0.3951-0.698344-0.5668-1.047744-0.1862-0.3786-0.55565-0.123259-0.76515-0.442559-0.2161-0.3295-0.33669-0.669341-0.73049-0.787541-0.47689-0.143-1.00034 0.09746-1.46204 0.294862-0.3819 0.163299-0.78975-0.04957-1.30155-0.677168-0.2194-0.2691-0.17374-0.723421-0.48894-0.869121-0.2829-0.1308-0.93295 0.05357-1.31595 0.264468-0.8453 0.4656-2.01479 0.588116-3.05259 0.620116-1.3353 0.0412-1.57536 0.720336-1.93126 0.397236-0.2437-0.2212-0.51025-0.03697-0.59025 0.169025-0.1041 0.2681-0.33479 0.616571-0.62279 0.667571-0.2723 0.0478-0.59065 0.09462-0.86005 0.308724-0.2605 0.207-0.58811 0.186745-1.05361 0.363645-0.3091 0.1174-1.06399-0.612792-1.83049 0.241007-0.4218 0.469701-0.46907-0.145689-0.67876-0.179689-0.47831-0.0784-0.98958 0.523688-0.93258 1.005088 0.041 0.3405 0.0311 0.875099-0.0549 1.369799-0.0881 0.5039-0.58059 1.043197-0.72569 1.514297-0.332 1.0779-0.93696 1.08976-1.24236 1.66306-0.2438 0.4575-0.48976 0.798396-0.85526 1.109596-0.4229 0.3597-0.43518 0.659676 0.0469 1.053076 0.4359 0.3555-0.25738 0.514098-0.35138 0.961898-0.1269 0.605-0.0839 1.232585-0.46548 1.836885-0.3267 0.5173-0.85256 0.996556-1.01735 1.545756-0.28041 0.937-0.56917 0.325607-1.12027 0.926707-0.3536 0.3858-0.22955 0.879523-0.58225 1.134123-0.4097 0.2958-0.38258 0.664725-0.48468 1.126125-0.1175 0.5309-1.05731 0.747197-1.21571 0.558797-0.4682-0.5569-1.04784-1.017651-1.58414-0.880851-0.31071 0.0793-0.25639 0.596261-0.46389 0.840861-0.4368 0.5148-0.65016-0.01215-0.82966 0.05385-0.2457 0.0899 0.104 0.584854-0.0336 0.737954-0.2765 0.308-0.71631-0.08524-1.16771 0.02026-0.3683 0.0861-0.75934 0.174152-0.92884-0.07625-0.2095-0.3097-0.82824 0.118331-0.53374 0.416431 0.1787 0.1809 0.0567 0.938165-0.1333 1.239165-0.2299 0.3642-0.74858 0.605356-0.89418 0.723556-0.2853 0.2316 0.2997 0.401294 0.1445 0.844594-0.0881 0.2516-0.48872 0.624488-0.76302 0.730488-0.34479 0.1383-0.64306 0.078-0.96456 0-0.3063-0.0747-0.33077 0.405728-0.51987 0.567328-0.4403 0.3765-0.75242-0.04687-1.01522 0.275133-0.1628 0.1996-0.96139-0.0032-1.42739 0.05279-0.249 0.0298-0.2496 0.458774-0.4079 0.653174-0.3017 0.3702-0.53681 0.222554-0.74702 0.326853-0.2157 0.107101-0.33968 0.270868-0.46228 0.543868-0.1102 0.2456-0.13667 0.380623-0.39617 0.451623-0.3241 0.0892-1.03976 0.07583-1.41086-0.108774-0.5615-0.2794-0.39639-0.499535-0.29219-0.676635 0.1721-0.292399-6e-3 -0.743439-0.10344-1.068538-0.0985-0.330401 0.0744-0.639083 0.11943-1.027483 0.0225-0.1919-0.36086-0.116902-0.55826-0.126902-0.3391-0.0173-0.45915-0.387758-0.73475-0.445758-0.2398-0.0505-0.47514-0.03676-0.67504 0.105041-0.3446 0.2448-0.78774 0.263088-1.05254 0.04799-0.4908-0.3987-0.8923 0.118893-1.2573-0.380707-0.31899-0.4371-0.52878-0.481963-0.86378-0.696363-0.1815-0.1185-0.64457-0.248-0.80247 0-0.1375 0.216-0.12235 0.469744-0.37645 0.501744-0.4128 0.0523-0.9077 0.06397-1.2301-0.170625-0.2896-0.2108-0.68869-0.523059-0.84139-0.852059-0.1738-0.3716 0.16558-0.769189-0.17383-0.998689-0.34419-0.2332-0.64574 0.120083-0.88725-0.06612-0.19069-0.147-0.12149-0.694684-0.27779-0.749684-0.122-0.0432-0.3502 0.394213-0.57799 0.493213-0.36151 0.1572-0.74036 0.611449-0.98377 0.892049-0.1636 0.1888-0.10055 0.42137-0.32365 0.53427-0.2677 0.1355-0.4669 0.282914-0.6841 0.351913-0.2915 0.0919-0.57203 0.227065-0.70863 0.282065-0.0998 0.0401-0.18299-0.142732-0.29059-0.141832-0.2086 2e-3 -0.34558 0.141949-0.51348 0.346049-0.1934 0.2349 0.0717 0.440365-0.041 0.689965-0.1037 0.229899-0.42707 0.413509-0.53267 0.642509-0.1824 0.3966 0.0161 0.877347-0.0459 1.309547-0.0768 0.5346-0.35868 0.788709-0.47668 1.194909-0.054 0.1852-0.01 0.326336-0.0667 0.535336-0.0764 0.278799-0.0653 0.609912-0.10131 0.899513-0.0363 0.2892-0.42629 0.45356-0.47828 0.710761-0.0502 0.249599-0.27704 0.527199-0.53054 0.549197-0.2441 0.02159-0.30105-0.198796-0.49215-0.285795-0.1576-0.0722 0.094-0.365089 0-0.459088-0.0372-0.0372-0.19416 0.0905-0.40736 0.1365-0.1992 0.0424-0.37683 0.158214-0.56893 0.212214-0.3414 0.096-0.59084 0.494408-0.94484 0.51241-0.2466 0.0125-0.57987-0.396369-0.79447-0.274068-0.4332 0.2467-0.71406-0.06041-0.97576 0.02558-0.4535 0.149001-0.47549 0.04918-0.72889 0.08318-0.2397 0.027-0.37256-0.0068-0.57426 0.02719-0.4312 0.073-0.65871-0.05269-0.77741 0.09171-0.1281 0.156-0.27207 0.123939-0.41857 0.254337-0.16 0.1422-0.0776 0.25691-0.41003 0.38071-0.2197 0.0814-0.3811-0.21596-0.5428 0.106639-0.1006 0.200701-0.29699-0.200685-0.47189 0.482017-0.0591 0.230699-0.24771 0.397229-0.48361 0.429227-0.3679 0.0498-0.73863-0.368831-1.10693-0.414832-0.1935-0.02411-0.42169 0.153915-0.60199 0.07891-0.3523-0.145799-0.65663-0.134338-0.96883-0.255938-0.4079-0.159099-0.63454-0.08358-1.06854-0.203682-0.23209-0.064-0.57615-0.122108-0.74755 0.03199-0.1989 0.1759-0.56273 0.223555-0.82753 0.185553-0.1738-0.02471-0.29762-0.235678-0.47242-0.219678-0.1893 0.0175-0.31411 0.283186-0.49961 0.324188-0.3183 0.071-0.34238 0.392699-0.59719 0.404701-0.27939 0.01261-0.55356-0.360164-0.82486-0.428163-0.5236-0.1303-0.5633-0.306319-0.811-0.334318-0.2224-0.0255-0.38488 0.169145-0.62598 0.219145-0.2666 0.0554-0.29646 0.546011-0.43456 0.780611-0.1452 0.2465-0.39522 0.400663-0.45323 0.285263-0.0944-0.1887-0.19906-0.195364-0.29805-0.142364-0.17531 0.0944-0.25276 0.252328-0.44896 0.286328-0.3332 0.058-0.63887-0.205141-0.97576-0.235141-0.40861-0.0362-0.55431 0.312353-0.77901 0.188753-0.3353-0.184699-0.45741-0.06797-0.78861-0.11997-0.1805-0.0286-0.325 0.578487-0.6745 0.465487-0.3809-0.123001-0.77613 0.319947-0.86113-0.06665-0.0385-0.175399-0.43352 0.286871-0.58652 0.246872-0.184-0.0483-0.23301-0.05241-0.35991 0.06399-0.1885 0.172801-0.21229 0.526235-0.46069 0.808337-0.127 0.143898 0.01 0.436699-0.0251 0.677701-0.0474 0.3279-7e-3 0.776343-0.13011 0.776343-0.37529 0.0044-0.11413 0.487526-0.38763 0.570527-0.2187 0.066-0.48311 0.101512-0.66331 0.08851-0.2518-0.01799-0.39899-0.09679-0.55879-0.02879-0.11961 0.0507-0.28133 0.16139-0.30233 0.320988-0.0184 0.141502-0.13915 0.248054-0.19515 0.330055-0.1387 0.202399 0.21355 0.204823 0.18555 0.450024-0.0191 0.1665 0.29178 0.169617 0.34178 0.329519 0.0575 0.182498-0.0712 0.336969-0.0992 0.52627-0.044 0.297101 0.0313 0.691192-0.0187 0.987493-0.0515 0.305599-0.37339 0.626439-0.28739 0.92404 0.0944 0.323502-0.0891 0.412216-0.0101 0.616917 0.089 0.229999-0.0781 0.394722 0.0992 0.591323 0.1816 0.2062-0.1063 0.789707 0 1.061607 0.1007 0.257398 0.30504 0.274054 0.50494 0.460153 0.1379 0.128301 0.30937 0.123155 0.51987 0.322055 0.2721 0.2571 0.69827 0.344853 0.96777 0.604651 0.3516 0.338902 0.3033 0.727766 0.5204 0.967766 0.1784 0.197098 0.57088 0.250893 0.76408 0.433494 0.2578 0.2435 0.34517 0.495552 0.42817 0.872852-1.1409-0.263399-1.4763-0.134409-2.1968-0.231408-0.8673-0.116102-1.86624-0.292727-2.56044 0.242074-0.4121 0.3173-0.0665 0.907482-0.32099 1.294083-0.2798 0.424799-0.8206 0.581026-1.2525 0.849925-0.9569 0.595801-1.73002 1.087395-3.15123 0.974695-1.40339-0.111299-1.62843-0.60772-2.44313-0.59772-0.613 0.0051-0.90096 0.760335-2.08376 0.808337-0.6732 0.02711-0.89091-0.599451-1.59801-0.609451-0.6174-0.0048-1.33056 0.263571-1.65186 0.388171-0.7137 0.2768-0.73625 0.467105-1.46525 0.664905-1.27409 0.345798-1.75683 0.27024-2.70973 0.649439-0.7827 0.311502-1.12562-0.284154-2.92302-0.458552-0.5482-0.0534-1.08827 0.117778-1.65027 0.08478-0.6545-0.0378-1.26598-0.344417-1.86567-0.608915-0.27231-0.121802-0.53324-0.07197-0.81794-0.111974-0.3511-0.049-0.66405-0.20881-1.01735-0.23781-0.2408-0.02001-0.50722 0.0276-0.74862 0.01761-0.4025-0.01411-0.77366-0.230491-1.25996-0.176492-0.65259 0.0719-0.93857 0.559596-1.48817 0.571594-0.4412 0.0092-0.73421-0.482822-1.17411-0.446824-0.4599 0.0374-0.74947 0.548405-1.19437 0.671304-0.27641 0.076-0.5469-0.01682-0.8302 0.02719-0.293 0.0457-0.55566 0.245405-0.85206 0.255405-0.4953 0.01619-1.07255-0.433262-1.55056-0.302861-0.47879 0.130401-0.80695 0.07923-1.26155 0.148231-0.2589 0.0393-0.58756-0.112569-0.84886-0.129569-0.2781-0.01799-0.51241 0.108319-0.78701 0.06132-0.2881-0.0489-0.49778-0.236451-0.77048-0.34125-0.5872-0.225501-1.21874-0.166609-1.74304-0.514007-0.2821-0.186901-0.35607-0.409839-0.66917-0.803537-0.5057-0.636101-1.18358-0.996431-1.85128-1.648132-0.7219-0.704501-0.97215-1.218431-1.73504-1.37673-0.6351-0.1319-0.89349 0.490709-1.27169 0.229811-1.0935-0.7544-0.7604-2.352965-1.7793-2.737466-1.1942-0.450699-1.73658-0.558056-2.41488-1.404457-0.3553-0.4435-0.44589-1.038902-0.74008-1.631601-0.25721-0.518001-0.68345-0.802877-1.03815-1.192775-0.2713-0.298002-0.32066-0.634147-0.56626-0.904845-0.274-0.301903-0.64137-0.487682-0.94537-0.759284-0.5564-0.4973-0.9199-1.368533-1.5175-1.636933-0.6667-0.2995-1.54262 0.05269-2.25811-0.09651-0.8427-0.1757-0.95823-0.885808-1.11973-1.46951-0.12882-0.46573 0.0914-0.305842-0.60859-0.805942-0.25591 0.248599-0.72085 0.276358-1.12613 0.355173-0.64071 0.1246-1.36991 0.404387-1.81748 0.925863-0.5763 0.7858-1.41938 1.445723-1.96058 2.221325-0.2675 0.382999 0.36898 0.122577 0.36898 0.360976 0 0.9614-0.68642 1.237944-0.73743 1.598544-0.0151 0.106699 0.39723 0.527258 0.42923 0.582257 0.0795 0.136101-0.27852 0.548154-0.32152 0.872855-0.0185 0.140199 0.11777 0.149896 0.13277 0.290594 0.0704 0.664701-0.50807 1.18936-0.67077 1.664662-0.0873 0.255099-0.59601-0.434152-0.76461-0.198351-0.2307 0.323199-0.37748 0.311102-0.77368 0.395102-0.3286 0.0695-0.41148 0.42191-0.77528 0.233011-0.2333-0.1211-0.48928 0.521315-0.47828 0.615314 0.0373 0.313402 0.87587 0.612672 1.06107 0.940573 0.0993 0.174998-0.12832 0.350201-0.0613 0.539601 0.1774 0.5025 1.18466 1.143111 0.99336 1.321811-0.0728 0.068-0.22367 0.02756-0.26767 0.306058-0.0713 0.449601 0.0209 1.359114 0.28313 1.447113 0.33641 0.1125 0.22547 1.117645 0.28047 2.001644 0.0463 0.739999 0.15779 1.144042 0.44949 1.741442-2.0192 0.306-3.92275 0.848632-5.93295 1.094132-1.1014 0.135002-1.71511-0.09058-2.41701 0.06932-0.2396 0.0546-0.42541-0.186364-0.49641-0.421766-0.0747-0.2476-0.15961-0.255826-0.26181-0.165826-0.2168 0.191201-0.57828 0.685831-0.88938 0.695831-1.0484 0.0222-2.86117 0.02217-3.00247-0.101843-0.8066-0.708298-0.99492-3.074302-1.26102-3.128301-0.4945-0.100101-0.88977-0.160462-1.47857-0.294862-0.6632-0.1513-1.05354-0.153838-1.50524-0.389238-0.4511-0.2349 0.1222-0.426563-0.2714-0.426563-0.2254 0.0011-0.37492-0.01679-0.58812-0.06079-0.5834-0.1203-0.92844 0.07892-1.34474 0.07892-0.1408 0.0016-0.49047 6.9e-5 -0.78007 0.12157-0.2726 0.114401-0.71634 0.112301-0.54814 0.404701 0.137 0.237201 0.0889 0.510332 0.0379 0.684632-0.1191 0.406-0.19895 0.613125-0.63664 0.854724-0.5615 0.31-0.48636 0.577376-1.43005 0.916576-0.29831 0.107202-0.5074 0.224368-0.5444 0.543868-0.0304 0.2608-0.64456 0.03542-0.71556 0.343917-0.0593 0.256899-0.55578 0.09072-0.64678-0.35618-0.0479-0.233699-0.31338-0.03186-0.33538 0.121037-0.0432 0.294799 0.14463 0.77072-0.12477 0.87072-0.2837 0.105099-0.61468 0.418665-0.22288 0.556666 0.8143 0.286898 1.38541 0.67274 2.55831 1.19384 0.625 0.277502 0.44565-0.461498 0.74275-0.1381 0.5279 0.574701 0.67506 0.218821 0.97576 0.332719 0.295 0.111701 0.40363 0.361815 0.55293 0.488416 0.15226 0.129126 0.28398 0.266317 0.41004 0.396702 71.97187-0.0289 144.51673 0 216.64416 0 0.0133-0.02978 0.0251-0.0595 0.04-0.08904 0.2285-0.4506-0.0607-1.075813 0.31032-1.178912 0.5326-0.148001 8e-3 -0.847531 0.37164-1.097332 0.1203-0.0828 0.45343-0.01054 0.44043-0.165825-0.02-0.235602 0.13572-0.563822 0.0597-0.739022-0.0487-0.112899-0.0762-0.363552 0.10344-0.601452 0.2642-0.350401 0.33597-0.873346 0.65158-0.763548 0.40879 0.142102 0.86887-1.213458 0.64037-1.398058-0.2471-0.1998 0.0665-0.731383 0.36951-0.884582 0.4607-0.232902 0.79746-0.270453 1.24237-0.474551 0.38739-0.1776 0.73075-0.09198 0.86326-0.348184 0.11701-0.226298-0.23391-0.54214-0.34551-0.792339-0.0721-0.161799 0.0998-0.515724 0.31564-0.307125 0.14871 0.143699 0.28788 0.289669 0.4703 0.396169 0.29978 0.1751 0.31065 0.446967 0.59506 0.548668 0.29669 0.105599 0.62181-0.08092 0.93683-0.07092 0.3701 0.01 1.13592-0.213041 1.25462 0.03786 0.14701 0.310601 0.78703 0.232722 0.71502-0.08478-0.0492-0.216301-0.10707-0.554062 0.19303-0.707561 0.22859-0.117-0.16664-0.735026-0.12263-0.988026 0.0579-0.3295 0.49566-0.429947 0.54865-0.760348 0.0499-0.313598-0.38384-0.06331-0.27032-1.053608 0.0678-0.591201-6e-3 -0.808842 0.19462-0.925642 0.35588-0.207699 1.23027-0.592956 1.31326-0.444158 0.49951 0.898099 0.87161 1.268345 1.52231 1.731844 0.81258 0.579 1.00718 1.321937 1.31326 1.347938 0.4911 0.042 0.94764-0.09637 1.67693-0.126369 0.5578-0.02269 0.77076 0.04167 1.39487-0.153031 0.24559-0.0767 0.74963-0.0415 0.94963-0.390302 0.1157-0.2019 0.2599-0.201324 0.60838-0.311925 0.46091-0.146199 0.76546-0.835369 0.87125-1.362867 0.0778-0.3878 0.40625-0.749694 0.72837-0.979494 0.55028-0.392501 1.49077-0.132326 1.77717-0.572126 0.17718-0.2719 0.0186-0.434969 0.0394-0.683568 0.0169-0.2011-0.0662-0.711523-0.24207-0.996024-0.097-0.150199-0.22323-0.534228-0.0869-0.703827 0.20581-0.255902-0.36899-0.683745-0.0352-0.774744 0.52129-0.142301 1.04796 0.143986 1.79317-0.493212 0.51199-0.437802 1.04958-0.587109 1.66039-1.194911 0.39951-0.397698 0.73164-1.034495 1.03014-1.512695 0.16431-0.263 0.58009-0.457453 0.44791-0.737955-0.26812-0.569098-0.56828-0.349784-0.73476-0.609983-0.24922-0.389702-0.47663-0.551954-0.65053-0.464954-0.1442 0.0717-0.26355-0.191455-0.36415-0.317256-0.13211-0.1651-0.44393-0.312149-0.32312-0.485746 0.48269-0.693702 0.49879-1.18933 0.819-1.79423 0.17769-0.3349 0.3722-0.734392 0.25539-1.128792-0.039-0.131698 0.0594-0.219722 0.19568-0.316721 0.10841-0.0772-3e-3 -0.305643-0.12476-0.509743-0.0863-0.144-0.26549 0.05065-0.36898-0.08105-0.1712-0.218001-0.17614-0.507818-0.25914-0.888317-0.1285-0.5877-0.41408-0.586253-0.60357-0.466553-0.22192 0.1403-0.28264-0.0596-0.44843-0.288996-0.2294-0.3175-0.25425-0.73623-0.38763-1.10533-0.072-0.1992-0.3388-0.508547-0.44469-0.355647-0.15081 0.2175-0.17325 0.225997-0.31993 0.0128-0.0503-0.073-0.28594-0.202157-0.57532-0.179157-0.2623 0.021-0.46206-0.100252-0.60625 0.07785-0.23091 0.285-0.73145-0.206812-1.18106 0.05119-0.4377 0.251-1.09729 0.275736-1.59268 0.532136-0.4273 0.2211-0.7683 0.81746-1.04562 0.98376-0.22399 0.1343-0.53764-0.0805-0.82645-0.128502-0.3178-0.0524-0.69184-0.06843-0.87232-0.167426-0.19871-0.109-0.19336-0.388785-0.31086-0.606785-0.0979-0.1815-1.14813 0.173219-1.15812-0.211681-3e-3 -0.1835 4e-3 -0.351239-0.1237-0.52254-0.13401-0.1785-0.0902-0.361349-0.12424-0.480949-0.063-0.2133 0.29219-0.34353-0.0629-0.69423-0.25678-0.2537-0.4748-0.593606-0.69208-0.931506-0.1795-0.2789 0.17019-0.743392-0.47243-0.850992-0.0986-0.0165-0.31564 0.05569-0.33164-0.213815-0.012-0.1988 0.56323-0.120849 0.75553-0.06985 0.2736 0.0733 0.36511-0.880194 0.032-0.846194-0.74409 0.0768-0.82386-0.342427-1.06746-0.432427-0.67262-0.2482-0.62364-0.470077-1.07494-0.776877-0.33882-0.2303-0.27707-0.66801-0.46175-0.913911-0.21501-0.2864-0.21845-0.432732-0.12744-0.684632 0.0516-0.1428-0.41253-0.388643-0.62492-0.371643-0.1442 0.0113-0.0926 0.478871-0.36257 0.527871-0.40582 0.0742-0.54374 0.478504-0.84032 0.257004-0.95422-0.7127-1.10945-0.24634-1.40874-0.24634-0.4846-0.0072-0.78373 0.245218-1.07013 0.610518-0.4044 0.5156-0.86926-0.373988-1.15867-0.730488-0.56718-0.699001-0.88802-1.638581-0.97202-2.53858-0.0302-0.325501-0.47839-0.762429-0.59719-1.113329-0.1151-0.3405 0.012-0.576276-0.1253-0.781676-0.1884-0.2823 0.11557-0.533145-0.0117-0.768345-0.1095-0.1993-0.049-0.312114 0-0.488414 0.0572-0.2046-0.35525-0.495514-0.46335-0.353514-0.1225 0.1609-0.36157 0.478496-0.53427 0.425496-0.2896-0.089-0.40772-0.09472-0.62012-0.06772-0.3066 0.0392-0.40894-0.184943-0.50494-0.504943-0.0652-0.2181-0.25265-0.277581-0.33166-0.622781-0.0445-0.1959-0.35556-0.163413-0.41056-0.356713-0.0569-0.1998 0.15334-0.288682 0.22235-0.484682 0.053-0.152-0.0218-0.348717 0.0752-0.477217 0.1491-0.196899 0.60161-0.443614 0.50761-0.624914-0.1131-0.2179-0.75036-0.0612-1.25676-0.253804-0.3132-0.1192-0.13397-0.34443-0.95657-0.42443-0.3776-0.0367-1.01354 0.14742-1.34634 0.32952-0.2877 0.157299-0.34045 0.556778-0.75235 0.905378-0.2763 0.2337-0.29817 0.682647-0.67237 0.901647-0.4111 0.2407-0.62837 0.219892-1.33567 0.714492-0.3543 0.2479-0.36688-0.294323-0.61958-0.453222-0.1361-0.0856-0.23144 0.146837-0.50974 0.117838-0.2312-0.0239-0.45812 0.140304-0.63292 0.117304-0.3575-0.0468-0.40151-0.473213-0.76141-0.493213-0.466-0.0256-0.74466 0.227487-1.12346 0.465486-0.3894 0.2446-0.92091 0.337577-1.33141 0.370577-0.5128 0.0412-1.0679-0.197991-1.4775 0.506009-0.1663 0.2854-0.43312-0.04081-0.64251 0.04319-0.1706 0.063-0.26015-0.05613-0.36365-0.01013-0.2503 0.112-0.24954 0.0039-0.50494-0.05812-0.38-0.0924-0.24563 0.688242-0.68943 0.646242-0.4239-0.0405-0.51276-0.609503-1.00776-0.398303-0.3364 0.1437-0.28437 0.822363-0.36737 1.245563-0.1076 0.5473-0.41662 0.713718-0.90112 0.334318-0.2703-0.2119-0.57317-0.278022-0.78967-0.185022-0.4771 0.203901-0.96324 0.07324-1.46844-0.285263-0.6319-0.4483-1.52743-0.501416-1.66573-1.572416-0.0431-0.3335-0.67977-0.172171-0.93257-0.394571-0.3414-0.3004-0.67069-0.40144-0.71769-0.92724-0.0147-0.1654-0.47801-0.29894-0.52201-0.79234-0.0539-0.6097-0.0949-1.066602-0.35564-1.628402-0.2933-0.6318-0.43122-1.416571-0.89792-2.164271-0.3244-0.519-0.15714-1.507103-0.37644-1.628403-0.4147-0.2295-1.18404 0.327034-1.61774 0.135434-0.8484-0.3742-0.91429-0.168645-1.26529-0.362045-0.5283-0.291-0.6911-0.887183-0.9459-1.433783-0.42679-0.915898-1.2534-0.840894-1.60919-1.384194-0.24741-0.3779-0.41943-0.667129-0.87552-0.833929-0.1598-0.0585-0.27799-0.366844-0.46069-0.366844z" fill="#cd2a3e"/>
  <path d="m171.81782 120.93452c-0.18061 0.31808-0.1815 0.84387-0.14983 1.2237 0.0224 0.2712 0.51461 0.11403 0.65371 0.42923 0.3822 0.8659 0.8262 1.31676 1.3698 1.92326 0.428 0.4775 1.06 0.78916 1.4791 1.27436 0.2422 0.2805 0.0704 0.58949 0.38764 0.84939 0.4006 0.3285 0.66189-0.28266 1.00669-0.0363 0.5052 0.3608-0.0639 1.48899 0.43936 1.81929 0.2574 0.169-6e-3 0.58445 0.0101 0.89205 0.0189 0.3638-0.13894 0.91177 0.18555 1.07707 0.47911 0.2442 1.00372 0.29926 1.55482 0.84726 0.43161 0.4291 0.91323 0.205 0.97523 0.5364 0.0405 0.2172 0.0945 0.34131 0.50495 0.36631 0.2922 0.0181 0.33273 0.26861 0.53373 0.23461 0.6339-0.1058 0.37633 0.15936 0.85153 0.17436 0.187 6e-3 0.17486 0.15847 0.31726 0.24048 0.12199 0.0702-0.0476 0.28977 0.0661 0.38177 0.1327 0.107 0.40284-0.0452 0.50335 0.0928 0.1196 0.1641 0.083 0.33261 0.22821 0.48841 0.2409 0.2584 0.206 0.66291 0.3983 0.92991 0.4454 0.6185 0.76353 1.65191 1.09573 1.71691 0.1633 0.0317 0.252-0.27327 0.4159-0.24527 0.3402 0.0588 0.26295 0.45374 0.48415 0.50974 0.3077 0.0782 0.36822 0.28725 0.45322 0.49535 0.1238 0.3014 0.4119-4e-3 0.6809 0.15676 0.1941 0.1154 0.3975-0.10892 0.8142-0.0469 0.3384 0.0507 0.51747 0.18249 0.68677 0.45589 0.1523 0.2464 0.40774 0.33834 0.78594 0.27034 0.2486-0.0449 0.30314 0.36401 0.52894 0.47722 0.2014 0.1011-0.0908 0.51659 0.50014 0.56359 0.4566 0.0363 0.16241 0.46699 0.37271 0.60359 0.2916 0.1893 0.27387 0.34015 0.13597 1.12985-0.074 0.424 0.0174 0.61019 0.23567 0.75129 0.12 0.0777 0.27601 0.28775 0.25701 0.59825-0.0157 0.2561 0.21934 0.31553 0.23834 0.71343 0.0326 0.6813 0.41853 1.04495 0.84513 1.26955 0.7184 0.3782 0.85316 0.69958 0.96616 1.06748 0.1367 0.4453 1.20514 0.0308 1.34314 0.5444 0.1046 0.3898 0.1322 0.56675 0.4095 0.75874 0.3237 0.2239 0.62069 0.13131 0.87339 0.24101 0.4968 0.2156 0.83968 0.4974 1.27648 0.8174 0.5018 0.3676 1.0822 0.3057 1.3762 0.6889 0.3478 0.4532 0.46403 0.40112 0.68783 0.33912 0.2886-0.0804 0.52213 0.12971 0.71343 0.48521 0.2863 0.5321 0.61895-9e-3 0.76675 0.29486 0.0964 0.1984 0.33297 0.28586 0.51507 0.0507 0.1463-0.189 0.46266-0.0566 0.70916 0.064 0.1941 0.0951 0.27066 0.44555 0.14716 0.63665-0.18129 0.281 0.28729 0.39617 0.45109 0.37217 0.2469-0.0366 0.44994 0.41546 0.53694 1.14746 0.0299 0.2505-0.28004 0.4227-0.37004 0.6585-0.081 0.2114-2e-4 0.50757-0.0272 0.69476-0.0935 0.64831 0.55862 0.53997 0.74702 0.14877 0.0919-0.1907 0.54779-0.2302 0.59879 0.1285 0.0479 0.3345 0.061 0.63853 0.19568 0.83713 0.2059 0.3035-0.62813 0.37037-0.82913 0.53587-0.373 0.307 0.11197 0.87283 0.67077 0.27673 0.2044-0.2177 0.70394-0.14527 0.94644 0.0293 0.2716 0.1953-0.0786 0.35172 0.20848 0.61052 0.1923 0.1732-0.48383 0.31247-0.43883 0.51347 0.061 0.2717 0.47759 0.18155 0.73369 0.19355 0.2558 0.0118 0.59151-0.0764 0.65851 0.17063 0.0917 0.338-0.43363 0.37625-0.41963 1.02855 0.0132 0.633 0.25112 0.60975 0.72462 0.48735 0.6694-0.173 0.74771 0.46459 0.51721 0.56839-0.3067 0.1382-1.09122 0.40599-1.03122 0.70169 0.0639 0.3137 0.62737 0.28902 0.93737 0.20902 0.6989-0.1804 0.62571 0.53226 0.50441 0.86006-0.0792 0.2135 0.0404 0.25722 0.18609 0.17222 0.4638-0.2695 0.51723 0.12012 0.28313 0.59132-0.1599 0.322 0.16443 0.74457 0.43563 0.55827 0.2312-0.159 0.26434-0.42482 0.25434-0.61052-8e-3 -0.2017-0.18433-0.33694-0.18342-0.53374 2e-3 -0.4054 0.4404-0.52481 0.5044-0.0661 0.0572 0.4081 0.39995 0.96654 0.64945 0.22874 0.1295-0.383 0.51001-0.27035 0.47401 0.21435-9e-3 0.1192 0.063 0.2922 0.11997 0.4047 0.1763 0.3499 0.0263 0.19829-0.29059 0.32419-0.4775 0.1898-0.1209 0.70643 0.2618 0.38924 0.1741-0.1443 0.66886-0.41696 0.58386 0.21274-0.048 0.3563-0.40951 0.32711-0.66331 0.37111-0.3017 0.0526-0.57868 0.23535-0.88458-0.0587-0.1957-0.1885-0.61963-0.24544-0.70063 0.0139-0.1234 0.3976 0.39791 0.82225 0.8046 0.91125 0.3897 0.0855 0.943-0.70183 1.2509-0.31513 0.2338 0.29371 0.39962 0.69378 0.72942 0.52308 0.1998-0.1035 0.50906-0.0172 0.57906 0.1045 0.1777 0.3118 0.37957 0.45883 0.65157 0.29593 0.3146-0.1886-0.43284-0.68496-0.097-1.09306 0.2813-0.3417 1.13505 0.15708 2.26025 0.19408 0.6002 0.0196 1.27069 0.4497 2.21439 0.4207 0.3082-9e-3 0.60941-0.15069 0.90272-0.0464 0.92529 0.3291 1.21453 1.21144 1.89073 1.48284 0.4615 0.1851 0.57547 0.36559 0.55347 0.86379-0.0169 0.3884 0.37662 0.91857 0.43563 1.20557 0.0624 0.3027 0.11545 0.68532 0.33165 1.02162 0.2805 0.4365 0.47212 0.82195 0.73102 1.02375 0.3684 0.2871 1.65051 0.24299 2.39781 0.56519 0.3777 0.1626 0.59326 0.53644 0.98216 0.67024 0.3129 0.108 0.66157 0.0358 0.97416 0.14396 0.3027 0.1047 0.47235 0.40675 0.78275 0.48575 0.2496 0.062 0.44683-0.10513 0.68623-0.0101 0.3937 0.1562 0.57268 0.59875 0.89418 0.87445 0.4427 0.3796 0.49768 1.08332 1.03708 1.16132 0.5362 0.0774 1.12283-0.92676 1.78303-0.98376 0.4102-0.0354 0.85033 0.42518 1.25943 0.38017 0.2585-0.0286 0.35125-0.27678 0.60305-0.34178 0.3679-0.0945 0.6591 0.12265 1.25729 0.0746 0.7272-0.0587 1.41523 0.72503 2.09283 0.94963 0.7561 0.2506 1.74525 0.60941 2.24425 0.52041 0.4864-0.087 0.7181-0.86908 1.3618-1.02908 0.5937-0.1475 1.18623 0.11223 1.79583 0.16422 0.6381 0.0539 1.35552-0.15033 1.93392 0.12477 0.41891 0.1993 0.48825 0.77479 0.89525 0.99709 0.2764 0.1513 0.63592 0.0288 0.90751 0.18822 0.42551 0.24961 0.59104 0.82312 0.95604 1.15492 0.6419 0.5839 1.12618 0.32686 1.43378 0.31086 0.2328-0.2576 0.37738-0.68172 0.65157-1.00402 0.19591-0.2301 0.23869-0.43066 0.48469-0.71396 0.0666-0.0767 0.14886-0.0706 0.27246-0.16156 0.1694-0.125 0.54735-0.13463 0.74595-0.0309 0.3339 0.1746 0.27974-0.0745 0.52095 0.048 0.28099 0.1426 0.24066 0.9405 0.95656 1.2461 0.571 0.2434 1.10922 0.36782 1.01522 0.0469-0.054-0.1853-0.14044-1.2896 0.43456-1.7857 0.2508-0.2161 0.31089 0.49762 0.98749 0.0581 0.319-0.2072 0.2695-0.68801 0.4191-1.03761 0.1122-0.262 0.60864-0.0907 0.64464 0.16689 0.0441 0.3153 0.42037-0.17767 0.68357-0.24367 0.4183-0.105 0.95543 0.23275 1.25143-0.081 0.2747-0.2913 0.51046 0.0401 0.68196-0.1365 0.1819-0.1871-0.0412-0.55579 0.1509-0.73209 0.2079-0.1909 0.58494-0.21109 0.78914-0.45749 0.1678-0.2025 0.19821-0.63931 0.36311-0.77261 0.1753-0.1416 0.49202-0.1004 0.62332-0.2746 0.1989-0.2638-0.14192-0.69342 0.0528-1.02002 0.2236-0.37499 0.33038-1.09645 0.50228-1.13145 0.1262-0.0255 0.67803 0.59504 0.72302 0.10344 0.0185-0.2024-0.40891-0.50873-0.34391-0.70223 0.1532-0.458 0.5219-0.1501 0.6777-0.2602 0.2269-0.1605-0.0559-0.40533 0.0688-0.69263 0.0864-0.1986-0.0582-0.55212 0.1413-0.63611 0.2742-0.11601-0.0258 0.24497 0.89472-0.0517 0.6179-0.1992 1.00491 0.61223 2.52151 0.93843 0.229 0.0493 0.31811 0.36531 0.50282 0.50921 0.25969 0.2022 0.56617 0.39299 0.79607 0.32899 0.3866-0.1074 0.50902 0.61314 0.97683 0.21435 0.31469-0.2687-0.10782-0.99246 0.0624-1.42046 0.0799-0.2009 0.53198-0.39334 0.61798-0.25274 0.1359 0.221 0.13246 0.63025 0.31726 0.63025 0.363 1e-4 0.89016-0.23233 1.24076-0.28633 0.248-0.0384-0.0102-0.71415 0.2762-0.73315 0.813-0.0529 1.11033-0.35116 1.51323-0.85046 0.4526-0.561 1.87659 0.40789 2.38609 0.42389 0.3055 9e-3 0.39676-0.36412 0.68836-0.32312 0.1965 0.0277 0.17893 0.28213 0.26394 0.42603 0.175 0.2975 0.59297 0.12849 0.78647-0.10451 0.1308-0.1575-0.45877-0.49594-0.40577-1.18424 0.0345-0.4446 0.3959-0.80263 0.811-0.96563 0.90131-0.3541 2.07421 0.0251 2.16321-0.15036 0.1469-0.2908-0.65809-1.29326-0.45109-1.82996 0.202-0.5238 0.5926-0.5699 0.79821-1.0712 0.1813-0.442 0.39871-1.24676 0.76941-1.28076 0.1741-0.016 1.0219-0.10721 1.19971 0.048 0.47719 0.4165 0.33322 2.46994 0.84032 2.41594 0.6775-0.072 1.61332 0.061 1.69932-0.23194 0.0807-0.2752 0.49575-0.0926 0.88405-0.13863 0.4997-0.0597 0.43844 0.3004 0.66384 0.2794 0.7969-0.0733 1.62509-0.14349 2.0651-0.19249 0.33739-0.0379-0.59936-0.67536-0.30286-0.84086 1.17059-0.6535 2.38515-1.56571 3.31065-1.86781 0.2871-0.0938 0.32711 0.52297 0.67291 0.65637 0.2543 0.0981 0.36521-0.18816 0.74542-0.13917 0.39229 0.05 0.88904-0.64603 1.19224-1.07973 0.296-0.4234 0.54767-0.74035 0.92617-1.02055 0.3465-0.2568 0.49417-0.40759 0.39617-0.99549-0.057-0.3432 0.54935-0.33986 0.89685-0.57906 0.2769-0.1906 0.37608-0.56544 0.74648-0.64944 0.3987-0.09 0.83378-0.15405 0.90378-0.48095 0.0652-0.3041-0.73468-0.4119-0.75768-0.8078-0.0176-0.2991 0.20263-0.68495 0.54493-0.74596 0.2059-0.0368 0.26069 0.38999 0.46069 0.32899 0.462-0.1412 0.84752-0.9576 1.14212-1.61401 0.2126-0.47359 0.32814-0.77582 0.53534-0.69582 0.6601 0.2551 1.36913 0.21878 2.05603 0.35298 0.542 0.1058 0.45647-0.85072 0.81847-0.87872 0.3364-0.0263 0.66767 0.62929 1.21676 0.71929 0.28041 0.046 0.44403-0.29621 0.72463-0.25221 0.4312 0.0681 0.6749 0.46275 0.9395 0.74435 0.2002 0.2131 0.46092 0.0572 0.75662 0.34712 0.232 0.2274 0.29333 0.6269 0.53853 0.8398 0.4155 0.36049 1.12797 0.31095 1.48817 0.72675 0.2801 0.3233 0.66685 0.63219 1.02055 0.58919 0.5006-0.0606 0.9499-0.84181 1.3986-1.32021 0.3728-0.3977 1.09383-0.2499 1.64813-0.5684 0.5839-0.3356 0.94123-0.22071 1.35273-0.61531 0.192-0.1839 0.32986-0.2069 0.71716-0.1269 0.2565 0.0525 0.46868-0.036 1.05308-0.073 0.5853-0.0376 1.21745 0.1273 1.96645 0.1173 0.0674 0.4318-3e-3 0.62752 0.1541 1.03602 0.1255 0.3265 0.44132 0.41703 0.72622 0.28952 0.2783-0.1246 0.42207 0.0438 0.64997-0.23834 0.6269-0.776 1.00178-1.23061 1.33088-1.71691 0.1117-0.165 0.40984 0.47721 0.35884 0.65051-0.0683 0.2311 0.0363 0.44513 0.43883 0.53213 0.481 0.1039 0.27674 0.7394 0.78274 0.8254 0.6553 0.1113 1.34219-0.10612 1.82089-0.58492 0.2084-0.2082 0.90629 0.13888 0.98429 0.32898 0.2258 0.5531 0.67314 1.23288 1.22104 1.32288 0.4629 0.076 0.65209-0.40479 0.87019-0.0208 0.0612 0.1079 0.18315 0.0249 0.19515-0.0501 0.0531-0.3354 0.3565-0.17202 0.5412-0.35832 0.2375-0.2396 0.21165-0.56444 0.46335-0.78914 0.5464-0.4876 0.72072-0.1344 1.44552-0.6793 0.3336-0.2508 0.95893-0.7091 1.24343-0.6681 0.5015 0.0714 0.24946 0.65997 0.54546 0.64997 0.352-0.01 0.63301 0.10318 0.94111 0.0752 0.2691-0.0247 0.5726-0.27132 0.7998-0.35032 0.3372-0.1167 0.28844-0.16494 0.38444-0.37164 0.1162-0.249 0.41228-0.0469 0.51348 0.0261 0.1952 0.1373 0.39113-0.16443 0.67343-0.0101 0.312 0.1704 0.69801-0.56212 0.91231-0.57212 0.3211-0.0152 0.52495 0.66394 1.05095 0.37484 0.2996-0.1647 7e-3 -1.07928 0.44469-1.03228 0.2852 0.0305 0.14336 0.96175 0.40896 1.03175 0.315 0.0826 0.1328-0.82763 0.4351-0.69744 0.2569 0.11061-0.0523 0.62509 0.0437 0.88779 0.1708 0.4675 0.39819 0.3458 0.31619-0.1269-0.038-0.2187 0.2896 0.0965 0.5476-0.0379 0.129-0.0671 0.37093 0.042 0.29593 0.24474-0.1211 0.3285 0.27509 0.16087 0.41909 0.27087 0.439 0.3354 0.97679 0.50835 1.4066 0.87445 0.47609 0.4054 0.91048 0.59965 1.41298 0.62065 0.5646 0.0235 0.44557-0.853 1.09147-1.0936 0.5736-0.2139 0.62903 0.26515 0.94803 0.18715 0.3474-0.0843 0.30302-0.6689 0.76142-0.6809 0.632-0.7301 0.68917-1.68786 0.80407-2.61536 0.0577-0.4654 0.87143 0.067 0.96243-0.35191 0.0976-0.4492-0.39681-1.85987-0.0949-2.16907 0.4984-0.5107 0.58273-0.7405 0.95923-1.2621 0.2193-0.30389 1.07737-0.29929 1.78037-0.56039 0.6282-0.2334 1.78148-0.64468 1.98618-0.49748 0.1986 0.1428 0.17958 0.47094 0.34498 0.65104 0.3125 0.3403 0.76147 0.40689 1.08987 0.59559 0.3056 0.1758 0.59571-0.10359 0.63771-0.46229 0.0422-0.3584 0.72586-0.38598 0.99976-0.21008 0.1909 0.1225-0.0293 0.68116 0.41323 0.69316 0.5318 0.014 1.02828 0.1439 1.71478 0.0288 0.3177-0.0532 0.6537-0.38032 0.9571-0.20102 0.3223 0.1904 0.3004 0.60287 0.5204 0.81047 0.3274 0.3088 0.74716 0.31403 1.14106 0.40203 0.4635 0.103 0.2191-0.68607 0.5604-0.78007 0.1898-0.0522 0.44992-0.10944 0.58332-0.25434 0.4832-0.525 0.17012-1.33535 0.32312-1.99205 0.0397-0.1705 0.0913-0.43554 0.25754-0.49055 0.1471-0.047 0.45068 0.11504 0.63078 0.0101 0.3061-0.17799 0.5231-0.25841 0.6857-0.0517 0.0941 0.119 0.18928 0.32657 0.36738 0.0928 0.15969-0.2096 0.54669-0.29514 0.69529-0.51294 0.1699-0.2477-0.14864-0.53869 0.15996-0.84299 0.2446-0.2415 0.15077-0.39728 0.28047-0.51988 0.1562-0.144 0.14609-0.44572 0.14609-0.58492 8e-3 -0.7015-0.38324-1.29581-0.0778-1.60121 0.17-0.1703 0.14194-0.44597 0.23994-0.68677 0.1149-0.28159 0.26352-0.40553 0.30552-0.82273 0.0278-0.2777 0.61753 0.0688 0.56253-0.56679-0.0182-0.21 0.11503-0.27119 0.42763-0.3002 0.6759-0.0629 1.22961 0.32313 1.89661 0.44843 0.2459 0.0462 0.52048-0.04 0.46548-0.22128-0.0983-0.3255 7e-3 -0.55842 0.16263-0.72622 0.349-0.3758 0.47719-0.66693 0.56519-0.99283 0.2604-0.9667-0.16168-1.22074-0.35777-1.72704-0.1414-0.3651-0.21093-0.47407-0.97523-0.53107-0.2224-0.0165-0.86896-1.14383-0.71396-1.65133 0.1745-0.5714 0.82243-0.92013 0.41963-1.77984-0.0808-0.1719-0.18899-0.33121 0.0917-0.49801 0.4399-0.2614 0.48334-0.64504 0.78914-0.90004 0.4779-0.3986 0.70374-0.95643 0.79874-1.41513 0.1455-0.69979-0.42921-0.20104-0.53001 0.0603-0.0995 0.2578-0.48546 0.15408-0.27726-0.34232 0.4019-0.9586 0.86826-2.18119 1.25356-2.36049 0.4946-0.23 0.73106-0.0196 1.50736-0.44896 0.4303-0.2379 0.98338 0.91992 1.34847 0.86593 0.26251-0.0386 0.88963-1.38689 1.52763-2.26239 0.037-0.0507 0.0377-0.10345 0.0203-0.15729h-197.78328c-0.0649 0.0309-0.13779 0.0618-0.23195 0.0976-0.21321 0.0811-0.36168-4e-3 -0.48148-0.0976z" fill="#436f4d"/>
 </g>
 <path d="m172.95195 120.93452c-0.0649 0.0309-0.13779 0.0618-0.23195 0.0976-0.21321 0.0811-0.36168-4e-3 -0.48148-0.0976h-0.4207c-0.18061 0.31808-0.1815 0.84387-0.14983 1.2237 0.0224 0.2712 0.51461 0.11403 0.65371 0.42923 0.3822 0.8659 0.8262 1.31676 1.3698 1.92326 0.428 0.4775 1.06 0.78916 1.4791 1.27436 0.2422 0.2805 0.0704 0.58949 0.38764 0.84939 0.4006 0.3285 0.66189-0.28266 1.00669-0.0363 0.5052 0.3608-0.0639 1.48899 0.43936 1.81929 0.2574 0.169-6e-3 0.58445 0.0101 0.89205 0.0189 0.3638-0.13894 0.91177 0.18555 1.07707 0.47911 0.2442 1.00372 0.29926 1.55482 0.84726 0.43161 0.4291 0.91323 0.205 0.97523 0.5364 0.0405 0.2172 0.0945 0.34131 0.50495 0.36631 0.2922 0.0181 0.33273 0.26861 0.53373 0.23461 0.6339-0.1058 0.37633 0.15936 0.85153 0.17436 0.187 6e-3 0.17486 0.15847 0.31726 0.24048 0.12199 0.0702-0.0476 0.28977 0.0661 0.38177 0.1327 0.107 0.40284-0.0452 0.50335 0.0928 0.1196 0.1641 0.083 0.33261 0.22821 0.48841 0.2409 0.2584 0.206 0.66291 0.3983 0.92991 0.4454 0.6185 0.76353 1.65191 1.09573 1.71691 0.1633 0.0317 0.252-0.27327 0.4159-0.24527 0.3402 0.0588 0.26295 0.45374 0.48415 0.50974 0.3077 0.0782 0.36822 0.28725 0.45322 0.49535 0.1238 0.3014 0.4119-4e-3 0.6809 0.15676 0.1941 0.1154 0.3975-0.10892 0.8142-0.0469 0.3384 0.0507 0.51747 0.18249 0.68677 0.45589 0.1523 0.2464 0.40774 0.33834 0.78594 0.27034 0.2486-0.0449 0.30314 0.36401 0.52894 0.47722 0.2014 0.1011-0.0908 0.51659 0.50014 0.56359 0.4566 0.0363 0.16241 0.46699 0.37271 0.60359 0.2916 0.1893 0.27387 0.34015 0.13597 1.12985-0.074 0.424 0.0174 0.61019 0.23567 0.75129 0.12 0.0777 0.27601 0.28775 0.25701 0.59825-0.0157 0.2561 0.21934 0.31553 0.23834 0.71343 0.0326 0.6813 0.41853 1.04495 0.84513 1.26955 0.7184 0.3782 0.85316 0.69958 0.96616 1.06748 0.1367 0.4453 1.20514 0.0308 1.34314 0.5444 0.1046 0.3898 0.1322 0.56675 0.4095 0.75874 0.3237 0.2239 0.62069 0.13131 0.87339 0.24101 0.4968 0.2156 0.83968 0.4974 1.27648 0.8174 0.5018 0.3676 1.0822 0.3057 1.3762 0.6889 0.3478 0.4532 0.46403 0.40112 0.68783 0.33912 0.2886-0.0804 0.52213 0.12971 0.71343 0.48521 0.2863 0.5321 0.61895-9e-3 0.76675 0.29486 0.0964 0.1984 0.33297 0.28586 0.51507 0.0507 0.1463-0.189 0.46266-0.0566 0.70916 0.064 0.1941 0.0951 0.27066 0.44555 0.14716 0.63665-0.18129 0.281 0.28729 0.39617 0.45109 0.37217 0.2469-0.0366 0.44994 0.41546 0.53694 1.14746 0.0299 0.2505-0.28004 0.4227-0.37004 0.6585-0.081 0.2114-2e-4 0.50757-0.0272 0.69476-0.0935 0.64831 0.55861 0.53997 0.74701 0.14877 0.0919-0.1907 0.54779-0.2302 0.59879 0.1285 0.0479 0.3345 0.061 0.63853 0.19568 0.83713 0.20591 0.3035-0.62812 0.37037-0.82912 0.53587-0.373 0.307 0.11196 0.87283 0.67077 0.27673 0.20439-0.2177 0.70393-0.14527 0.94643 0.0293 0.2716 0.1953-0.0786 0.35172 0.20848 0.61052 0.1923 0.1732-0.48382 0.31247-0.43882 0.51347 0.061 0.2717 0.47758 0.18155 0.73368 0.19355 0.2558 0.0118 0.59151-0.0764 0.65851 0.17063 0.0917 0.338-0.43363 0.37625-0.41963 1.02855 0.0132 0.633 0.25112 0.60975 0.72462 0.48735 0.6694-0.173 0.74771 0.46459 0.51721 0.56839-0.3067 0.1382-1.09122 0.40599-1.03122 0.70169 0.0639 0.3137 0.62737 0.28902 0.93737 0.20902 0.69891-0.1804 0.62572 0.53226 0.50442 0.86006-0.0792 0.2135 0.0404 0.25722 0.18608 0.17222 0.4638-0.2695 0.51723 0.12012 0.28313 0.59132-0.1599 0.322 0.16443 0.74457 0.43563 0.55827 0.2312-0.159 0.26434-0.42482 0.25434-0.61052-8e-3 -0.2017-0.18432-0.33694-0.18342-0.53374 2e-3 -0.4054 0.44041-0.52481 0.50441-0.0661 0.0572 0.4081 0.39994 0.96654 0.64944 0.22874 0.1295-0.383 0.51002-0.27035 0.47402 0.21435-9e-3 0.1192 0.063 0.2922 0.11997 0.4047 0.1763 0.3499 0.0263 0.19829-0.2906 0.32419-0.4775 0.1898-0.1209 0.70643 0.2618 0.38924 0.1741-0.1443 0.66886-0.41696 0.58386 0.21274-0.048 0.3563-0.4095 0.32711-0.6633 0.37111-0.3017 0.0526-0.57869 0.23535-0.88459-0.0587-0.1957-0.1885-0.61963-0.24544-0.70063 0.0139-0.1234 0.3976 0.39791 0.82224 0.80461 0.91124 0.3897 0.0855 0.94299-0.70182 1.25089-0.31512 0.2338 0.2937 0.39962 0.69377 0.72942 0.52307 0.1998-0.1035 0.50906-0.0172 0.57906 0.10451 0.1777 0.3118 0.37958 0.45883 0.65158 0.29593 0.3146-0.1886-0.43285-0.68497-0.097-1.09307 0.2813-0.3417 1.13505 0.15709 2.26025 0.19409 0.6002 0.0196 1.27069 0.4497 2.2144 0.42069 0.30819-9e-3 0.60941-0.15068 0.90271-0.0464 0.9253 0.32909 1.21454 1.21143 1.89074 1.48283 0.46149 0.1851 0.57546 0.36559 0.55346 0.86379-0.0169 0.3884 0.37663 0.91858 0.43563 1.20558 0.0624 0.3027 0.11545 0.68531 0.33165 1.02161 0.2805 0.4365 0.47212 0.82195 0.73102 1.02375 0.3684 0.2871 1.65051 0.243 2.39782 0.5652 0.37769 0.1626 0.59326 0.53643 0.98215 0.67023 0.31291 0.108 0.66157 0.0358 0.97417 0.14397 0.3027 0.1047 0.47234 0.40675 0.78274 0.48575 0.2496 0.062 0.44683-0.10513 0.68623-0.0101 0.3937 0.1562 0.57268 0.59875 0.89418 0.87445 0.4427 0.3796 0.49769 1.08332 1.03708 1.16132 0.5362 0.0774 1.12283-0.92676 1.78304-0.98376 0.41019-0.0354 0.85032 0.42517 1.25942 0.38017 0.2585-0.0286 0.35125-0.27678 0.60305-0.34178 0.3679-0.0945 0.6591 0.12265 1.2573 0.0746 0.7272-0.0587 1.41522 0.72503 2.09282 0.94963 0.7561 0.2506 1.74525 0.60941 2.24425 0.52041 0.4864-0.087 0.7181-0.86908 1.3618-1.02908 0.5937-0.1475 1.18623 0.11222 1.79583 0.16422 0.6381 0.0539 1.35553-0.15033 1.93393 0.12477 0.4189 0.1993 0.48825 0.77479 0.89525 0.99709 0.27639 0.1513 0.63591 0.0288 0.90751 0.18822 0.4255 0.2496 0.59103 0.82312 0.95603 1.15492 0.6419 0.5839 1.12618 0.32686 1.43378 0.31086 0.2328-0.2576 0.37738-0.68172 0.65158-1.00402 0.1959-0.2301 0.23868-0.43066 0.48468-0.71396 0.0666-0.0767 0.14887-0.0706 0.27247-0.16156 0.1694-0.125 0.54735-0.13463 0.74595-0.0309 0.3339 0.1746 0.27974-0.0745 0.52094 0.048 0.281 0.1426 0.24066 0.94049 0.95656 1.2461 0.571 0.24339 1.10922 0.36782 1.01522 0.0469-0.054-0.1853-0.14044-1.2896 0.43456-1.7857 0.2508-0.2161 0.3109 0.49762 0.9875 0.0581 0.319-0.2072 0.26949-0.68801 0.41909-1.03761 0.1122-0.262 0.60864-0.0907 0.64464 0.16689 0.0441 0.3153 0.42037-0.17767 0.68357-0.24367 0.4183-0.10501 0.95543 0.23275 1.25143-0.0811 0.2747-0.2913 0.51046 0.0401 0.68197-0.1365 0.1819-0.1871-0.0412-0.55579 0.15089-0.73209 0.2079-0.1909 0.58494-0.21109 0.78914-0.45749 0.1678-0.2025 0.19822-0.63931 0.36312-0.77261 0.17529-0.1416 0.49201-0.1004 0.62331-0.2746 0.1989-0.2638-0.14191-0.69342 0.0528-1.02002 0.2236-0.375 0.33037-1.09645 0.50227-1.13145 0.1262-0.0255 0.67803 0.59504 0.72303 0.10344 0.0185-0.2024-0.40892-0.50873-0.34392-0.70223 0.1532-0.458 0.5219-0.1501 0.6777-0.2602 0.2269-0.1605-0.0559-0.40533 0.0688-0.69263 0.0864-0.1986-0.0582-0.55212 0.14129-0.63612 0.2742-0.116-0.0258 0.24498 0.89472-0.0517 0.6179-0.1992 1.00492 0.61224 2.52152 0.93844 0.229 0.0493 0.31811 0.36531 0.50281 0.50921 0.2597 0.2022 0.56617 0.39299 0.79607 0.32899 0.3866-0.10741 0.50903 0.61314 0.97683 0.21434 0.3147-0.2687-0.10782-0.99245 0.0624-1.42045 0.0799-0.2009 0.53199-0.39334 0.61799-0.25274 0.1359 0.221 0.13245 0.63025 0.31725 0.63025 0.363 1e-4 0.89016-0.23233 1.24077-0.28633 0.24799-0.0384-0.0102-0.71416 0.27619-0.73316 0.813-0.0529 1.11033-0.35116 1.51323-0.85045 0.4526-0.56101 1.87659 0.40789 2.38609 0.42389 0.3055 9e-3 0.39676-0.36412 0.68836-0.32312 0.1965 0.0277 0.17894 0.28213 0.26394 0.42603 0.175 0.2975 0.59297 0.12849 0.78647-0.10451 0.1308-0.1575-0.45876-0.49594-0.40576-1.18424 0.0345-0.4446 0.3959-0.80263 0.811-0.96563 0.9013-0.3541 2.0742 0.0251 2.1632-0.15037 0.1469-0.2908-0.65809-1.29325-0.45109-1.82995 0.202-0.5238 0.59261-0.5699 0.79821-1.0712 0.1813-0.442 0.39871-1.24676 0.76941-1.28076 0.1741-0.016 1.02191-0.10721 1.19971 0.048 0.4772 0.4165 0.33322 2.46994 0.84032 2.41594 0.67751-0.072 1.61332 0.061 1.69932-0.23194 0.0807-0.2752 0.49575-0.0926 0.88405-0.13863 0.49971-0.0597 0.43844 0.3004 0.66384 0.2794 0.7969-0.0733 1.6251-0.14349 2.0651-0.19249 0.3374-0.0379-0.59936-0.67536-0.30286-0.84086 1.1706-0.6535 2.38516-1.56571 3.31066-1.86781 0.2871-0.0938 0.3271 0.52297 0.6729 0.65637 0.2543 0.0981 0.36522-0.18816 0.74542-0.13917 0.3923 0.05 0.88904-0.64603 1.19224-1.07973 0.296-0.4234 0.54767-0.74035 0.92617-1.02055 0.3465-0.2568 0.49417-0.40759 0.39617-0.99549-0.057-0.3432 0.54935-0.33986 0.89685-0.57906 0.2769-0.1906 0.37609-0.56544 0.74649-0.64944 0.3987-0.09 0.83377-0.15405 0.90377-0.48095 0.0652-0.3041-0.73468-0.41191-0.75768-0.8078-0.0176-0.29911 0.20264-0.68496 0.54494-0.74596 0.2059-0.0368 0.26068 0.38999 0.46068 0.32899 0.462-0.1412 0.84753-0.95761 1.14213-1.61401 0.21259-0.47359 0.32813-0.77582 0.53533-0.69582 0.6601 0.25509 1.36913 0.21877 2.05603 0.35297 0.542 0.1058 0.45647-0.85071 0.81847-0.87872 0.3364-0.0263 0.66767 0.6293 1.21677 0.7193 0.2804 0.046 0.44402-0.29621 0.72462-0.25221 0.4312 0.0681 0.67491 0.46275 0.93951 0.74435 0.20019 0.2131 0.46091 0.0572 0.75661 0.34712 0.232 0.2274 0.29334 0.62689 0.53854 0.83979 0.4155 0.3605 1.12797 0.31096 1.48817 0.72676 0.2801 0.3233 0.66685 0.63219 1.02055 0.58919 0.5006-0.0606 0.94989-0.84181 1.39859-1.32021 0.3728-0.3977 1.09383-0.2499 1.64813-0.5684 0.5839-0.3356 0.94124-0.22071 1.35274-0.61531 0.19199-0.1839 0.32985-0.20691 0.71715-0.12691 0.2565 0.0525 0.46868-0.036 1.05308-0.073 0.5853-0.0376 1.21745 0.1273 1.96645 0.1173 0.0674 0.4318-3e-3 0.62751 0.1541 1.03602 0.1255 0.3265 0.44132 0.41702 0.72622 0.28952 0.2783-0.1246 0.42208 0.0438 0.64997-0.23834 0.62691-0.776 1.00178-1.23061 1.33088-1.71691 0.1117-0.165 0.40985 0.47721 0.35885 0.65051-0.0683 0.2311 0.0363 0.44513 0.43882 0.53213 0.481 0.1039 0.27675 0.7394 0.78275 0.8254 0.65529 0.1113 1.34218-0.10612 1.82088-0.58492 0.2084-0.2082 0.9063 0.13888 0.9843 0.32898 0.2258 0.5531 0.67313 1.23288 1.22103 1.32288 0.4629 0.076 0.65209-0.40479 0.87019-0.0208 0.0612 0.1079 0.18315 0.0249 0.19515-0.0501 0.0531-0.3354 0.3565-0.17201 0.5412-0.35831 0.2375-0.23961 0.21166-0.56445 0.46336-0.78915 0.5464-0.4876 0.72071-0.1344 1.44551-0.6793 0.3336-0.2508 0.95893-0.7091 1.24343-0.6681 0.5015 0.0714 0.24947 0.65998 0.54547 0.64998 0.352-0.01 0.633 0.10318 0.9411 0.0752 0.2691-0.0247 0.5726-0.27132 0.79981-0.35032 0.33719-0.1167 0.28843-0.16494 0.38443-0.37164 0.1162-0.249 0.41228-0.0469 0.51348 0.0261 0.1952 0.1373 0.39113-0.16443 0.67343-0.0101 0.312 0.1704 0.69801-0.56213 0.91231-0.57213 0.3211-0.0152 0.52495 0.66394 1.05095 0.37484 0.2996-0.1647 7e-3 -1.07928 0.44469-1.03228 0.2852 0.0305 0.14337 0.96175 0.40897 1.03175 0.315 0.0826 0.13279-0.82763 0.43509-0.69743 0.2569 0.1106-0.0523 0.62509 0.0437 0.88779 0.1708 0.46749 0.39819 0.34579 0.31619-0.12691-0.038-0.2187 0.2896 0.0965 0.5476-0.0379 0.129-0.0671 0.37093 0.042 0.29593 0.24475-0.1211 0.32849 0.2751 0.16086 0.4191 0.27086 0.439 0.3354 0.97679 0.50835 1.40659 0.87446 0.4761 0.4054 0.91049 0.59964 1.41299 0.62064 0.5646 0.0235 0.44556-0.853 1.09146-1.0936 0.5736-0.2139 0.62904 0.26516 0.94804 0.18716 0.3474-0.0843 0.30301-0.6689 0.76141-0.6809 0.632-0.7301 0.68917-1.68786 0.80407-2.61536 0.0577-0.4654 0.87143 0.067 0.96243-0.35192 0.0976-0.4492-0.39681-1.85987-0.0949-2.16907 0.4984-0.5107 0.58274-0.74049 0.95923-1.26209 0.21931-0.3039 1.07737-0.2993 1.78037-0.5604 0.6282-0.2334 1.78148-0.64467 1.98618-0.49748 0.1986 0.14281 0.17959 0.47095 0.34499 0.65105 0.3125 0.3403 0.76146 0.40688 1.08986 0.59558 0.3056 0.1758 0.59571-0.10358 0.63771-0.46228 0.0422-0.3584 0.72586-0.38598 0.99976-0.21008 0.1909 0.1225-0.0293 0.68116 0.41323 0.69316 0.5318 0.014 1.02828 0.14389 1.71478 0.0288 0.3177-0.0532 0.6537-0.38032 0.9571-0.20102 0.3223 0.19041 0.30041 0.60287 0.52041 0.81047 0.3274 0.3088 0.74715 0.31404 1.14105 0.40204 0.4635 0.103 0.2191-0.68608 0.5604-0.78008 0.1898-0.0522 0.44992-0.10944 0.58332-0.25434 0.4832-0.525 0.17012-1.33534 0.32313-1.99204 0.0397-0.1705 0.0913-0.43555 0.25753-0.49055 0.1471-0.047 0.45068 0.11503 0.63078 0.0101 0.3061-0.178 0.5231-0.25842 0.6857-0.0517 0.0941 0.119 0.18928 0.32657 0.36738 0.0928 0.1597-0.20959 0.54669-0.29514 0.69529-0.51294 0.16991-0.2477-0.14863-0.53869 0.15997-0.84299 0.2446-0.2415 0.15076-0.39727 0.28046-0.51987 0.1562-0.144 0.1461-0.44573 0.1461-0.58493 8e-3 -0.7015-0.38325-1.29581-0.0779-1.60121 0.17-0.1703 0.14194-0.44596 0.23994-0.68676 0.1149-0.2816 0.26353-0.40553 0.30553-0.82273 0.0278-0.2777 0.61753 0.0688 0.56253-0.5668-0.0182-0.21 0.11503-0.27119 0.42762-0.30019 0.67591-0.0629 1.22961 0.32312 1.89661 0.44842 0.2459 0.0462 0.52048-0.04 0.46549-0.22128-0.0983-0.3255 7e-3 -0.55842 0.16262-0.72622 0.349-0.3758 0.4772-0.66692 0.5652-0.99282 0.2604-0.9667-0.16168-1.22075-0.35778-1.72705-0.1414-0.3651-0.21093-0.47407-0.97523-0.53107-0.2224-0.0165-0.86896-1.14383-0.71396-1.65133 0.1745-0.5714 0.82243-0.92013 0.41963-1.77983-0.0808-0.1719-0.18899-0.33121 0.0917-0.49801 0.4399-0.26141 0.48334-0.64505 0.78914-0.90005 0.4779-0.3986 0.70374-0.95642 0.79874-1.41512 0.1455-0.6998-0.4292-0.20105-0.53 0.0602-0.0995 0.2578-0.48547 0.15408-0.27727-0.34232 0.4019-0.9586 0.86826-2.18119 1.25356-2.36049 0.4946-0.23 0.73107-0.0195 1.50737-0.44895 0.4303-0.2379 0.98337 0.91992 1.34847 0.86592 0.2625-0.0386 0.88963-1.38688 1.52763-2.26238 0.037-0.0507 0.0377-0.10346 0.0202-0.1573" fill="none" stroke="#436f4d" stroke-width=".273"/>
 <path d="m397.18252 66.33452c0.0133-0.02978 0.0251-0.0595 0.04-0.08904 0.2285-0.4506-0.0607-1.075813 0.31032-1.178912 0.5326-0.148001 8e-3 -0.847531 0.37164-1.097332 0.1203-0.0828 0.45343-0.01054 0.44043-0.165825-0.02-0.235602 0.13572-0.563822 0.0597-0.739022-0.0487-0.112899-0.0762-0.363552 0.10344-0.601452 0.2642-0.350401 0.33597-0.873346 0.65158-0.763548 0.40879 0.142102 0.86887-1.213458 0.64037-1.398058-0.2471-0.1998 0.0665-0.731383 0.36951-0.884582 0.4607-0.232902 0.79746-0.270453 1.24237-0.474551 0.38739-0.1776 0.73075-0.09198 0.86326-0.348184 0.11701-0.226298-0.23391-0.54214-0.34551-0.792339-0.0721-0.161799 0.0998-0.515724 0.31564-0.307125 0.14871 0.143699 0.28788 0.289669 0.4703 0.396169 0.29978 0.1751 0.31065 0.446967 0.59506 0.548668 0.29669 0.105599 0.62181-0.08092 0.93683-0.07092 0.3701 0.01 1.13592-0.213041 1.25462 0.03786 0.14701 0.310601 0.78703 0.232722 0.71502-0.08478-0.0492-0.216301-0.10707-0.554062 0.19303-0.707561 0.22859-0.117-0.16664-0.735026-0.12263-0.988026 0.0579-0.3295 0.49566-0.429947 0.54865-0.760348 0.0499-0.313598-0.38384-0.06331-0.27032-1.053608 0.0678-0.591201-6e-3 -0.808842 0.19462-0.925642 0.35588-0.207699 1.23027-0.592956 1.31326-0.444158 0.49951 0.898099 0.87161 1.268345 1.52231 1.731844 0.81258 0.579 1.00718 1.321937 1.31326 1.347938 0.4911 0.042 0.94764-0.09637 1.67693-0.126369 0.5578-0.02269 0.77076 0.04167 1.39487-0.153031 0.24559-0.0767 0.74963-0.0415 0.94963-0.390302 0.1157-0.2019 0.2599-0.201324 0.60838-0.311925 0.46091-0.146199 0.76546-0.835369 0.87125-1.362867 0.0778-0.3878 0.40625-0.749694 0.72837-0.979494 0.55028-0.392501 1.49077-0.132326 1.77717-0.572126 0.17718-0.2719 0.0186-0.434969 0.0394-0.683568 0.0169-0.2011-0.0662-0.711523-0.24207-0.996024-0.097-0.150199-0.22323-0.534228-0.0869-0.703827 0.20581-0.255902-0.36899-0.683745-0.0352-0.774744 0.52129-0.142301 1.04796 0.143986 1.79317-0.493212 0.51199-0.437802 1.04958-0.587109 1.66039-1.194911 0.39951-0.397698 0.73164-1.034495 1.03014-1.512695 0.16431-0.263 0.58009-0.457453 0.44791-0.737955-0.26812-0.569098-0.56828-0.349784-0.73476-0.609983-0.24922-0.389702-0.47663-0.551954-0.65053-0.464954-0.1442 0.0717-0.26355-0.191455-0.36415-0.317256-0.13211-0.1651-0.44393-0.312149-0.32312-0.485746 0.48269-0.693702 0.49879-1.18933 0.819-1.79423 0.17769-0.3349 0.3722-0.734392 0.25539-1.128792-0.039-0.131698 0.0594-0.219722 0.19568-0.316721 0.10841-0.0772-3e-3 -0.305643-0.12476-0.509743-0.0863-0.144-0.26549 0.05065-0.36898-0.08105-0.1712-0.218001-0.17614-0.507818-0.25914-0.888317-0.1285-0.5877-0.41408-0.586253-0.60357-0.466553-0.22192 0.1403-0.28264-0.0596-0.44843-0.288996-0.2294-0.3175-0.25425-0.73623-0.38763-1.10533-0.072-0.1992-0.3388-0.508547-0.44469-0.355647-0.15081 0.2175-0.17325 0.225997-0.31993 0.0128-0.0503-0.073-0.28594-0.202157-0.57532-0.179157-0.2623 0.021-0.46206-0.100252-0.60625 0.07785-0.23091 0.285-0.73145-0.206812-1.18106 0.05119-0.4377 0.251-1.09729 0.275736-1.59268 0.532136-0.4273 0.2211-0.7683 0.81746-1.04562 0.98376-0.22399 0.1343-0.53764-0.0805-0.82645-0.128502-0.3178-0.0524-0.69184-0.06843-0.87232-0.167426-0.19871-0.109-0.19336-0.388785-0.31086-0.606785-0.0979-0.1815-1.14813 0.173219-1.15812-0.211681-3e-3 -0.1835 4e-3 -0.351239-0.1237-0.52254-0.13401-0.1785-0.0902-0.361349-0.12424-0.480949-0.063-0.2133 0.29219-0.34353-0.0629-0.69423-0.25678-0.2537-0.4748-0.593606-0.69208-0.931506-0.1795-0.2789 0.17019-0.743392-0.47243-0.850992-0.0986-0.0165-0.31564 0.05569-0.33164-0.213815-0.012-0.1988 0.56323-0.120849 0.75553-0.06985 0.2736 0.0733 0.36511-0.880194 0.032-0.846194-0.74409 0.0768-0.82386-0.342427-1.06746-0.432427-0.67262-0.2482-0.62364-0.470077-1.07494-0.776877-0.33882-0.2303-0.27707-0.66801-0.46175-0.913911-0.21501-0.2864-0.21845-0.432732-0.12744-0.684632 0.0516-0.1428-0.41253-0.388643-0.62492-0.371643-0.1442 0.0113-0.0926 0.478871-0.36257 0.527871-0.40582 0.0742-0.54374 0.478504-0.84032 0.257004-0.95422-0.7127-1.10945-0.24634-1.40874-0.24634-0.4846-0.0072-0.78373 0.245218-1.07013 0.610518-0.4044 0.5156-0.86926-0.373988-1.15867-0.730488-0.56718-0.699001-0.88802-1.638581-0.97202-2.53858-0.0302-0.325501-0.47839-0.762429-0.59719-1.113329-0.1151-0.3405 0.012-0.576276-0.1253-0.781676-0.1884-0.2823 0.11557-0.533145-0.0117-0.768345-0.1095-0.1993-0.049-0.312114 0-0.488414 0.0572-0.2046-0.35525-0.495514-0.46335-0.353514-0.1225 0.1609-0.36157 0.478496-0.53427 0.425496-0.2896-0.089-0.40772-0.09472-0.62012-0.06772-0.3066 0.0392-0.40894-0.184943-0.50494-0.504943-0.0652-0.2181-0.25265-0.277581-0.33166-0.622781-0.0445-0.1959-0.35556-0.163413-0.41056-0.356713-0.0569-0.1998 0.15334-0.288682 0.22235-0.484682 0.053-0.152-0.0218-0.348717 0.0752-0.477217 0.1491-0.196899 0.60161-0.443614 0.50761-0.624914-0.1131-0.2179-0.75036-0.0612-1.25676-0.253804-0.3132-0.1192-0.13397-0.34443-0.95657-0.42443-0.3776-0.0367-1.01354 0.14742-1.34634 0.32952-0.2877 0.157299-0.34045 0.556778-0.75235 0.905378-0.2763 0.2337-0.29817 0.682647-0.67237 0.901647-0.4111 0.2407-0.62837 0.219892-1.33567 0.714492-0.3543 0.2479-0.36688-0.294323-0.61958-0.453222-0.1361-0.0856-0.23144 0.146837-0.50974 0.117838-0.2312-0.0239-0.45812 0.140304-0.63292 0.117304-0.3575-0.0468-0.40151-0.473213-0.76141-0.493213-0.466-0.0256-0.74466 0.227487-1.12346 0.465486-0.3894 0.2446-0.92091 0.337577-1.33141 0.370577-0.5128 0.0412-1.06791-0.197991-1.4775 0.506009-0.1663 0.2854-0.43312-0.04081-0.64251 0.04319-0.1706 0.063-0.26015-0.05613-0.36365-0.01013-0.2503 0.112-0.24954 0.0039-0.50494-0.05812-0.38-0.0924-0.24563 0.688242-0.68943 0.646242-0.4239-0.0405-0.51276-0.609503-1.00776-0.398303-0.3364 0.1437-0.28437 0.822363-0.36737 1.245563-0.1076 0.5473-0.41662 0.713718-0.90112 0.334318-0.2703-0.2119-0.57317-0.278022-0.78967-0.185022-0.4771 0.203901-0.96324 0.07324-1.46844-0.285263-0.6319-0.4483-1.52743-0.501416-1.66573-1.572416-0.0431-0.3335-0.67977-0.172171-0.93257-0.394571-0.3414-0.3004-0.67069-0.40144-0.71769-0.92724-0.0147-0.1654-0.47801-0.29894-0.52201-0.79234-0.0539-0.6097-0.0949-1.066602-0.35564-1.628402-0.2933-0.6318-0.43122-1.416571-0.89792-2.164271-0.3244-0.519-0.15714-1.507103-0.37644-1.628403-0.4147-0.2295-1.18404 0.327034-1.61774 0.135434-0.8484-0.3742-0.91429-0.168645-1.26529-0.362045-0.5283-0.291-0.6911-0.887183-0.9459-1.433783-0.42679-0.915898-1.2534-0.840894-1.60919-1.384194-0.24741-0.3779-0.41943-0.667129-0.87552-0.833929-0.1598-0.0585-0.27799-0.366844-0.46069-0.366844-0.1309 0.0024-0.38825 0.242469-0.50814 0.264469-0.32101 0.0586-0.18214 0.182171-0.26714 0.389771-0.1556 0.3819 0.0829 0.867045-0.33005 1.042945-0.5007 0.2132-1.70555-0.580671-2.68735-0.251671-0.234 0.0785-0.7544 0.208299-0.3887 0.411099 0.2011 0.1114-0.0701 0.190103-0.0811 0.398303-0.0233 0.4252-0.18947 0.791972-0.39937 0.934172-0.1258 0.085-0.10662 0.28936-0.19462 0.43616-0.0848 0.1427-0.33951 0.320857-0.47721 0.310857-0.4865-0.023-0.72677 0.1009-1.09307 0-0.5784-0.1595-0.79755-1.08188-1.30155-0.89898-0.2145 0.0778-0.44476 0.15479-0.58066 0.31299-0.2229 0.2594-0.20936 0.511484-0.42496 0.611584-0.1856 0.0865-0.36833 0.07717-0.56893 0.107174-0.2395 0.0361-0.35938 0.185236-0.73529 0.124236-0.50909-0.0825-0.58224 0.742695-1.03014 0.976295-0.2817 0.1469-0.27712 0.322686-0.74862 0.465486-0.1536 0.047-0.38248 0.0436-0.62278 0.0176-0.4223-0.0451-0.28226-0.359308-0.45216-0.650507-0.2566-0.44-0.47306-0.508658-0.96936-0.994958-0.3387-0.332-0.92952 0.110698-1.28182 0.147698-0.4872 0.0516-0.56542-0.337592-0.88032-0.306592-0.2074 0.0205-0.32476 0.293981-0.57106 0.35298-0.3448 0.0831-0.51522 0.505766-0.71822 0.413766-0.3548-0.1602-0.3951-0.698344-0.5668-1.047744-0.1862-0.3786-0.55565-0.123259-0.76515-0.442559-0.2161-0.3295-0.33669-0.669341-0.73049-0.787541-0.47689-0.143-1.00034 0.09746-1.46204 0.294862-0.3819 0.163299-0.78975-0.04957-1.30155-0.677168-0.2194-0.2691-0.17374-0.723421-0.48894-0.869121-0.2829-0.1308-0.93295 0.05357-1.31595 0.264468-0.8453 0.4656-2.01479 0.588116-3.05259 0.620116-1.3353 0.0412-1.57536 0.720336-1.93126 0.397236-0.2437-0.2212-0.51025-0.03697-0.59025 0.169025-0.1041 0.2681-0.33479 0.616571-0.62279 0.667571-0.2723 0.0478-0.59065 0.09462-0.86005 0.308724-0.2605 0.207-0.58811 0.186745-1.05361 0.363645-0.3091 0.1174-1.06399-0.612792-1.83049 0.241007-0.4218 0.469701-0.46907-0.145689-0.67876-0.179689-0.47831-0.0784-0.98958 0.523688-0.93258 1.005088 0.041 0.3405 0.0311 0.875099-0.0549 1.369799-0.0881 0.5039-0.58059 1.043197-0.72569 1.514297-0.332 1.0779-0.93696 1.08976-1.24236 1.66306-0.2438 0.4575-0.48976 0.798396-0.85526 1.109596-0.4229 0.3597-0.43518 0.659676 0.0469 1.053076 0.4359 0.3555-0.25738 0.514098-0.35138 0.961898-0.1269 0.605-0.0839 1.232585-0.46548 1.836885-0.3267 0.5173-0.85256 0.996556-1.01735 1.545756-0.28041 0.937-0.56917 0.325607-1.12027 0.926707-0.3536 0.3858-0.22955 0.879523-0.58225 1.134123-0.4097 0.2958-0.38258 0.664725-0.48468 1.126125-0.1175 0.5309-1.05731 0.747197-1.21571 0.558797-0.4682-0.5569-1.04784-1.017651-1.58414-0.880851-0.31071 0.0793-0.25639 0.596261-0.46389 0.840861-0.4368 0.5148-0.65016-0.01215-0.82966 0.05385-0.2457 0.0899 0.104 0.584854-0.0336 0.737954-0.2765 0.308-0.71631-0.08524-1.16771 0.02026-0.3683 0.0861-0.75934 0.174152-0.92884-0.07625-0.2095-0.3097-0.82824 0.118331-0.53374 0.416431 0.1787 0.1809 0.0567 0.938165-0.1333 1.239165-0.2299 0.3642-0.74858 0.605356-0.89418 0.723556-0.2853 0.2316 0.2997 0.401294 0.1445 0.844594-0.0881 0.2516-0.48872 0.624488-0.76302 0.730488-0.34479 0.1383-0.64306 0.078-0.96456 0-0.3063-0.0747-0.33077 0.405728-0.51987 0.567328-0.4403 0.3765-0.75242-0.04687-1.01522 0.275133-0.1628 0.1996-0.96139-0.0032-1.42739 0.05279-0.249 0.0298-0.2496 0.458774-0.4079 0.653174-0.3017 0.3702-0.53681 0.222554-0.74702 0.326853-0.2157 0.107101-0.33968 0.270868-0.46228 0.543868-0.1102 0.2456-0.13667 0.380623-0.39617 0.451623-0.3241 0.0892-1.03976 0.07583-1.41086-0.108774-0.5615-0.2794-0.39639-0.499535-0.29219-0.676635 0.1721-0.292399-6e-3 -0.743439-0.10344-1.068538-0.0985-0.330401 0.0744-0.639083 0.11943-1.027483 0.0225-0.1919-0.36086-0.116902-0.55826-0.126902-0.3391-0.0173-0.45915-0.387758-0.73475-0.445758-0.2398-0.0505-0.47514-0.03676-0.67504 0.105041-0.3446 0.2448-0.78774 0.263088-1.05254 0.04799-0.4908-0.3987-0.8923 0.118893-1.2573-0.380707-0.31899-0.4371-0.52878-0.481963-0.86378-0.696363-0.1815-0.1185-0.64457-0.248-0.80247 0-0.1375 0.216-0.12235 0.469744-0.37645 0.501744-0.4128 0.0523-0.9077 0.06397-1.2301-0.170625-0.2896-0.2108-0.68869-0.523059-0.84139-0.852059-0.1738-0.3716 0.16558-0.769189-0.17383-0.998689-0.34419-0.2332-0.64574 0.120083-0.88725-0.06612-0.19069-0.147-0.12149-0.694684-0.27779-0.749684-0.122-0.0432-0.3502 0.394213-0.57799 0.493213-0.36151 0.1572-0.74036 0.611449-0.98377 0.892049-0.1636 0.1888-0.10055 0.42137-0.32365 0.53427-0.2677 0.1355-0.4669 0.282914-0.6841 0.351913-0.2915 0.0919-0.57203 0.227065-0.70863 0.282065-0.0998 0.0401-0.18299-0.142732-0.29059-0.141832-0.2086 2e-3 -0.34558 0.141949-0.51348 0.346049-0.1934 0.2349 0.0717 0.440365-0.041 0.689965-0.1037 0.229899-0.42707 0.413509-0.53267 0.642509-0.1824 0.3966 0.0161 0.877347-0.0459 1.309547-0.0768 0.5346-0.35868 0.788709-0.47668 1.194909-0.054 0.1852-0.01 0.326336-0.0667 0.535336-0.0764 0.278799-0.0653 0.609912-0.10131 0.899513-0.0363 0.2892-0.42629 0.45356-0.47828 0.710761-0.0502 0.249599-0.27704 0.527199-0.53054 0.549197-0.2441 0.02159-0.30105-0.198796-0.49215-0.285795-0.1576-0.0722 0.094-0.365089 0-0.459088-0.0372-0.0372-0.19416 0.0905-0.40736 0.1365-0.1992 0.0424-0.37683 0.158214-0.56893 0.212214-0.3414 0.096-0.59084 0.494408-0.94484 0.51241-0.2466 0.0125-0.57987-0.396369-0.79447-0.274068-0.4332 0.2467-0.71406-0.06041-0.97576 0.02558-0.4535 0.149001-0.47549 0.04918-0.72889 0.08318-0.2397 0.027-0.37256-0.0068-0.57426 0.02719-0.4312 0.073-0.65871-0.05269-0.77741 0.09171-0.1281 0.156-0.27207 0.123939-0.41857 0.254337-0.16 0.1422-0.0776 0.25691-0.41003 0.38071-0.2197 0.0814-0.3811-0.21596-0.5428 0.106639-0.1006 0.200701-0.29699-0.200685-0.47189 0.482017-0.0591 0.230699-0.24771 0.397229-0.48361 0.429227-0.3679 0.0498-0.73863-0.368831-1.10693-0.414832-0.1935-0.02411-0.42169 0.153915-0.60199 0.07891-0.3523-0.145799-0.65663-0.134338-0.96883-0.255938-0.4079-0.159099-0.63454-0.08358-1.06854-0.203682-0.23209-0.064-0.57615-0.122108-0.74755 0.03199-0.1989 0.1759-0.56273 0.223555-0.82753 0.185553-0.1738-0.02471-0.29762-0.235678-0.47242-0.219678-0.1893 0.0175-0.31411 0.283186-0.49961 0.324188-0.3183 0.071-0.34238 0.392699-0.59719 0.404701-0.27939 0.01261-0.55356-0.360164-0.82486-0.428163-0.5236-0.1303-0.5633-0.306319-0.811-0.334318-0.2224-0.0255-0.38488 0.169145-0.62598 0.219145-0.2666 0.0554-0.29646 0.546011-0.43456 0.780611-0.1452 0.2465-0.39522 0.400663-0.45323 0.285263-0.0944-0.1887-0.19906-0.195364-0.29805-0.142364-0.17531 0.0944-0.25276 0.252328-0.44896 0.286328-0.3332 0.058-0.63887-0.205141-0.97576-0.235141-0.40861-0.0362-0.55431 0.312353-0.77901 0.188753-0.3353-0.184699-0.45741-0.06797-0.78861-0.11997-0.1805-0.0286-0.325 0.578487-0.6745 0.465487-0.3809-0.123001-0.77613 0.319947-0.86113-0.06665-0.0385-0.175399-0.43352 0.286871-0.58652 0.246872-0.184-0.0483-0.23301-0.05241-0.35991 0.06399-0.1885 0.172801-0.21229 0.526235-0.46069 0.808337-0.127 0.143898 0.01 0.436699-0.0251 0.677701-0.0474 0.3279-7e-3 0.776343-0.13011 0.776343-0.37529 0.0044-0.11413 0.487526-0.38763 0.570527-0.2187 0.066-0.48311 0.101512-0.66331 0.08851-0.2518-0.01799-0.39899-0.09679-0.55879-0.02879-0.11961 0.0507-0.28133 0.16139-0.30233 0.320988-0.0184 0.141502-0.13915 0.248054-0.19515 0.330055-0.1387 0.202399 0.21355 0.204823 0.18555 0.450024-0.0191 0.1665 0.29178 0.169617 0.34178 0.329519 0.0575 0.182498-0.0712 0.336969-0.0992 0.52627-0.044 0.297101 0.0313 0.691192-0.0187 0.987493-0.0515 0.305599-0.37339 0.626439-0.28739 0.92404 0.0944 0.323502-0.0891 0.412216-0.0101 0.616917 0.089 0.229999-0.0781 0.394722 0.0992 0.591323 0.1816 0.2062-0.1063 0.789707 0 1.061607 0.1007 0.257398 0.30504 0.274054 0.50494 0.460153 0.1379 0.128301 0.30937 0.123155 0.51987 0.322055 0.2721 0.2571 0.69827 0.344853 0.96777 0.604651 0.3516 0.338902 0.3033 0.727766 0.5204 0.967766 0.1784 0.197098 0.57088 0.250893 0.76408 0.433494 0.2578 0.2435 0.34517 0.495552 0.42817 0.872852-1.1409-0.263399-1.4763-0.134409-2.1968-0.231408-0.8673-0.116102-1.86624-0.292727-2.56044 0.242074-0.4121 0.3173-0.0665 0.907482-0.32099 1.294083-0.2798 0.424799-0.8206 0.581026-1.2525 0.849925-0.9569 0.595801-1.73002 1.087395-3.15123 0.974695-1.40339-0.111299-1.62843-0.60772-2.44313-0.59772-0.613 0.0051-0.90096 0.760335-2.08376 0.808337-0.6732 0.02711-0.89091-0.599451-1.59801-0.609451-0.6174-0.0048-1.33056 0.263571-1.65186 0.388171-0.7137 0.2768-0.73625 0.467105-1.46525 0.664905-1.27409 0.345798-1.75683 0.27024-2.70973 0.649439-0.7827 0.311502-1.12562-0.284154-2.92302-0.458552-0.5482-0.0534-1.08827 0.117778-1.65027 0.08478-0.6545-0.0378-1.26598-0.344417-1.86567-0.608915-0.27231-0.121802-0.53324-0.07197-0.81794-0.111974-0.3511-0.049-0.66405-0.20881-1.01735-0.23781-0.2408-0.02001-0.50722 0.0276-0.74862 0.01761-0.4025-0.01411-0.77366-0.230491-1.25996-0.176492-0.65259 0.0719-0.93857 0.559596-1.48817 0.571594-0.4412 0.0092-0.73421-0.482822-1.17411-0.446824-0.4599 0.0374-0.74947 0.548405-1.19437 0.671304-0.27641 0.076-0.5469-0.01682-0.8302 0.02719-0.293 0.0457-0.55566 0.245405-0.85206 0.255405-0.4953 0.01619-1.07255-0.433262-1.55056-0.302861-0.47879 0.130401-0.80695 0.07923-1.26155 0.148231-0.2589 0.0393-0.58756-0.112569-0.84886-0.129569-0.2781-0.01799-0.51241 0.108319-0.78701 0.06132-0.2881-0.0489-0.49778-0.236451-0.77048-0.34125-0.5872-0.225501-1.21874-0.166609-1.74304-0.514007-0.2821-0.186901-0.35607-0.409839-0.66917-0.803537-0.5057-0.636101-1.18358-0.996431-1.85128-1.648132-0.7219-0.704501-0.97215-1.218431-1.73504-1.37673-0.6351-0.1319-0.89349 0.490709-1.27169 0.229811-1.0935-0.7544-0.7604-2.352965-1.7793-2.737466-1.1942-0.450699-1.73658-0.558056-2.41488-1.404457-0.3553-0.4435-0.44589-1.038902-0.74008-1.631601-0.25721-0.518001-0.68345-0.802877-1.03815-1.192775-0.2713-0.298002-0.32066-0.634147-0.56626-0.904845-0.274-0.301903-0.64137-0.487682-0.94537-0.759284-0.5564-0.4973-0.9199-1.368533-1.5175-1.636933-0.6667-0.2995-1.54262 0.05269-2.25811-0.09651-0.8427-0.1757-0.95823-0.885808-1.11973-1.46951-0.12882-0.46573 0.0914-0.305842-0.60859-0.805942-0.25591 0.248599-0.72085 0.276358-1.12613 0.355173-0.64071 0.1246-1.36991 0.404387-1.81748 0.925863-0.5763 0.7858-1.41938 1.445723-1.96058 2.221325-0.2675 0.382999 0.36898 0.122577 0.36898 0.360976 0 0.9614-0.68642 1.237944-0.73743 1.598544-0.0151 0.106699 0.39723 0.527258 0.42923 0.582257 0.0795 0.136101-0.27852 0.548154-0.32152 0.872855-0.0185 0.140199 0.11777 0.149896 0.13277 0.290594 0.0704 0.664701-0.50807 1.18936-0.67077 1.664662-0.0873 0.255099-0.59601-0.434152-0.76461-0.198351-0.2307 0.323199-0.37748 0.311102-0.77368 0.395102-0.3286 0.0695-0.41148 0.42191-0.77528 0.233011-0.2333-0.1211-0.48928 0.521315-0.47828 0.615314 0.0373 0.313402 0.87587 0.612672 1.06107 0.940573 0.0993 0.174998-0.12832 0.350201-0.0613 0.539601 0.1774 0.5025 1.18466 1.143111 0.99336 1.321811-0.0728 0.068-0.22367 0.02756-0.26767 0.306058-0.0713 0.449601 0.0209 1.359114 0.28313 1.447113 0.33641 0.1125 0.22547 1.117645 0.28047 2.001644 0.0463 0.739999 0.15779 1.144042 0.44949 1.741442-2.0192 0.306-3.92275 0.848632-5.93295 1.094132-1.1014 0.135002-1.71511-0.09058-2.41701 0.06932-0.2396 0.0546-0.42541-0.186364-0.49641-0.421766-0.0747-0.2476-0.15961-0.255826-0.26181-0.165826-0.2168 0.191201-0.57828 0.685831-0.88938 0.695831-1.0484 0.0222-2.86117 0.02217-3.00247-0.101843-0.8066-0.708298-0.99492-3.074302-1.26102-3.128301-0.4945-0.100101-0.88977-0.160462-1.47857-0.294862-0.6632-0.1513-1.05354-0.153838-1.50524-0.389238-0.4511-0.2349 0.1222-0.426563-0.2714-0.426563-0.2254 0.0011-0.37492-0.01679-0.58812-0.06079-0.5834-0.1203-0.92844 0.07892-1.34474 0.07892-0.1408 0.0016-0.49047 6.9e-5 -0.78007 0.12157-0.2726 0.114401-0.71634 0.112301-0.54814 0.404701 0.137 0.237201 0.0889 0.510332 0.0379 0.684632-0.1191 0.406-0.19895 0.613125-0.63664 0.854724-0.5615 0.31-0.48636 0.577376-1.43005 0.916576-0.29831 0.107202-0.5074 0.224368-0.5444 0.543868-0.0304 0.2608-0.64456 0.03542-0.71556 0.343917-0.0593 0.256899-0.55578 0.09072-0.64678-0.35618-0.0479-0.233699-0.31338-0.03186-0.33538 0.121037-0.0432 0.294799 0.14463 0.77072-0.12477 0.87072-0.2837 0.105099-0.61468 0.418665-0.22288 0.556666 0.8143 0.286898 1.38541 0.67274 2.55831 1.19384 0.625 0.277502 0.44565-0.461498 0.74275-0.1381 0.5279 0.574701 0.67506 0.218821 0.97576 0.332719 0.295 0.111701 0.40363 0.361815 0.55293 0.488416 0.15226 0.129126 0.28398 0.266317 0.41004 0.396702" fill="none" stroke="#cd2a3e" stroke-width=".273"/>
</svg>
